<?xml version="1.0" encoding="utf-8"?>
<!-- Generator: Adobe Illustrator 16.0.0, SVG Export Plug-In . SVG Version: 6.00 Build 0)  -->
<!DOCTYPE svg PUBLIC "-//W3C//DTD SVG 1.1//EN" "http://www.w3.org/Graphics/SVG/1.1/DTD/svg11.dtd">
<svg version="1.1" id="Layer_1" xmlns="http://www.w3.org/2000/svg" xmlns:xlink="http://www.w3.org/1999/xlink" x="0px" y="0px"
	 width="440.254px" height="440.718px" viewBox="0 0 440.254 440.718" enable-background="new 0 0 440.254 440.718"
	 xml:space="preserve">
<g>
	<g>
		<g>
			<path fill="#2C3E50" stroke="#2C3E50" stroke-width="10" stroke-miterlimit="10" d="M220.268,330.748
				c-0.642,0-1.297-0.127-1.939-0.4c-2.545-1.072-3.733-3.994-2.659-6.547l44.618-105.995c1.063-2.545,3.996-3.738,6.545-2.664
				c2.551,1.066,3.733,3.993,2.679,6.547l-44.625,105.995C224.079,329.595,222.227,330.748,220.268,330.748z"/>
		</g>
		<g>
			<path fill="#2C3E50" stroke="#2C3E50" stroke-width="10" stroke-miterlimit="10" d="M425.377,330.748H268.883
				c-2.76,0-5-2.244-5-5.004c0-2.764,2.24-5.008,5-5.008h151.424c-2.647-108.109-91.438-195.23-200.174-195.23
				c-108.747,0-197.521,87.121-200.184,195.23h151.429c2.759,0,4.999,2.244,4.999,5.008c0,2.76-2.24,5.004-4.999,5.004H14.886
				c-2.759,0-4.999-2.244-4.999-5.004c0-56.158,21.867-108.951,61.58-148.665c39.705-39.713,92.502-61.58,148.665-61.58
				c56.162,0,108.957,21.867,148.666,61.58c39.707,39.713,61.57,92.506,61.57,148.665
				C430.368,328.503,428.147,330.748,425.377,330.748z"/>
		</g>
	</g>
</g>
</svg>
