<?xml version="1.0" encoding="utf-8"?>
<!-- Generator: Adobe Illustrator 16.0.0, SVG Export Plug-In . SVG Version: 6.00 Build 0)  -->
<!DOCTYPE svg PUBLIC "-//W3C//DTD SVG 1.1//EN" "http://www.w3.org/Graphics/SVG/1.1/DTD/svg11.dtd">
<svg version="1.1" id="Layer_1" xmlns="http://www.w3.org/2000/svg" xmlns:xlink="http://www.w3.org/1999/xlink" x="0px" y="0px"
	 width="440.254px" height="440.718px" viewBox="0 0 440.254 440.718" enable-background="new 0 0 440.254 440.718"
	 xml:space="preserve">
<g>
	<g>
		<path fill="#2C3E50" stroke="#2C3E50" stroke-width="10" stroke-miterlimit="10" d="M62.959,422.31
			c-1.229,0-2.458-0.469-3.399-1.4l-39.972-39.973c-0.922-0.906-1.41-2.129-1.41-3.41c0-1.268,0.488-2.486,1.41-3.377
			l137.435-137.463c1.88-1.88,4.917-1.88,6.798,0c1.88,1.88,1.88,4.922,0,6.784L29.766,377.525l33.193,33.18l194.727-194.73
			c1.881-1.881,4.937-1.881,6.799,0l36.935,36.926l109.069-109.064l-27.37-27.381l-78.3,78.281c-0.903,0.899-2.133,1.41-3.399,1.41
			c-1.282,0-2.494-0.511-3.397-1.41l-52.267-52.266c-0.903-0.908-1.409-2.124-1.409-3.395c0-1.279,0.506-2.49,1.409-3.39
			l78.281-78.299l-27.371-27.398L187.576,139.074L224.512,176c1.879,1.881,1.879,4.913,0,6.793c-1.881,1.871-4.918,1.871-6.799,0
			l-40.315-40.324c-0.904-0.908-1.41-2.124-1.41-3.395c0-1.279,0.506-2.49,1.41-3.39L293.266,19.817
			c0.885-0.904,2.113-1.41,3.396-1.41c1.268,0,2.496,0.506,3.398,1.41l34.17,34.173c0.903,0.891,1.41,2.12,1.41,3.395
			c0,1.274-0.507,2.5-1.41,3.39l-78.301,78.299l45.485,45.473l78.28-78.29c0.904-0.909,2.136-1.401,3.419-1.401
			c1.266,0,2.477,0.493,3.381,1.401l34.187,34.173c0.903,0.9,1.393,2.12,1.393,3.404c0,1.265-0.488,2.49-1.393,3.39L304.816,263.095
			c-1.879,1.871-4.916,1.871-6.797,0l-36.936-36.936L66.339,420.91C65.4,421.841,64.17,422.31,62.959,422.31z"/>
	</g>
</g>
</svg>
