<?xml version="1.0" encoding="utf-8"?>
<!-- Generator: Adobe Illustrator 16.0.0, SVG Export Plug-In . SVG Version: 6.00 Build 0)  -->
<!DOCTYPE svg PUBLIC "-//W3C//DTD SVG 1.1//EN" "http://www.w3.org/Graphics/SVG/1.1/DTD/svg11.dtd">
<svg version="1.1" id="Layer_1" xmlns="http://www.w3.org/2000/svg" xmlns:xlink="http://www.w3.org/1999/xlink" x="0px" y="0px"
	 width="440.254px" height="440.718px" viewBox="0 0 440.254 440.718" enable-background="new 0 0 440.254 440.718"
	 xml:space="preserve">
<g>
	<g>
		<g>
			<path fill="#2C3E50" stroke="#2C3E50" stroke-width="10" stroke-miterlimit="10" d="M429.756,234.593
				c-1.524,0-3.051-0.564-4.254-1.713L221.128,39.022L16.734,232.878c-2.446,2.354-6.322,2.279-8.694-0.176
				c-2.354-2.459-2.239-6.354,0.187-8.688L216.875,26.04c2.373-2.262,6.137-2.262,8.525,0l208.63,197.976
				c2.444,2.334,2.521,6.229,0.17,8.687C432.993,233.96,431.375,234.593,429.756,234.593z"/>
		</g>
		<g>
			<path fill="#2C3E50" stroke="#2C3E50" stroke-width="10" stroke-miterlimit="10" d="M349.372,381.582h-76.394
				c-3.389,0-6.153-2.756-6.153-6.152v-86.65h-91.413v86.65c0,3.396-2.747,6.152-6.155,6.152H92.864
				c-3.387,0-6.155-2.756-6.155-6.152V198.147c0-3.383,2.768-6.146,6.155-6.146c3.407,0,6.155,2.764,6.155,6.146v171.128h64.084
				v-86.65c0-3.397,2.766-6.155,6.153-6.155h103.723c3.404,0,6.152,2.758,6.152,6.155v86.65h64.104V198.147
				c0-3.383,2.75-6.146,6.138-6.146c3.405,0,6.155,2.764,6.155,6.146v177.282C355.527,378.826,352.779,381.582,349.372,381.582z"/>
		</g>
	</g>
</g>
</svg>
