<?xml version="1.0" encoding="utf-8"?>
<!-- Generator: Adobe Illustrator 16.0.0, SVG Export Plug-In . SVG Version: 6.00 Build 0)  -->
<!DOCTYPE svg PUBLIC "-//W3C//DTD SVG 1.1//EN" "http://www.w3.org/Graphics/SVG/1.1/DTD/svg11.dtd">
<svg version="1.1" id="Layer_1" xmlns="http://www.w3.org/2000/svg" xmlns:xlink="http://www.w3.org/1999/xlink" x="0px" y="0px"
	 width="252.815px" height="182.984px" viewBox="0 0 252.815 182.984" enable-background="new 0 0 252.815 182.984"
	 xml:space="preserve">
<g>
	<g>
		<g>
			<path fill="#2D3F50" stroke="#2D3E50" stroke-width="3" stroke-miterlimit="10" d="M6.641,179.663
				c-1.607,0-2.911-1.302-2.911-2.909V5.722c0-1.607,1.304-2.909,2.911-2.909c1.602,0,2.906,1.302,2.906,2.909v171.033
				C9.547,178.361,8.243,179.663,6.641,179.663z"/>
		</g>
		<g>
			<path fill="#2D3F50" stroke="#2D3E50" stroke-width="3" stroke-miterlimit="10" d="M246.093,179.663H7.086
				c-1.607,0-2.906-1.302-2.906-2.909s1.299-2.908,2.906-2.908h239.006c1.602,0,2.909,1.301,2.909,2.908
				S247.695,179.663,246.093,179.663z"/>
		</g>
		<g>
			<path fill="#2D3F50" stroke="#2D3E50" stroke-width="3" stroke-miterlimit="10" d="M140.306,142.68
				c-0.237,0-0.479-0.026-0.722-0.095c-0.927-0.237-1.686-0.917-2.008-1.818l-22.464-61.573l-60.534,29.627
				c-0.816,0.4-1.778,0.39-2.589-0.021c-0.814-0.417-1.388-1.175-1.552-2.076L36.469,29.285c-0.288-1.581,0.767-3.093,2.345-3.373
				c1.583-0.29,3.098,0.759,3.382,2.34l13.284,73.64l59.98-29.348c0.738-0.353,1.597-0.39,2.363-0.084
				c0.767,0.305,1.365,0.927,1.649,1.696l22.114,60.642l66.253-57.875c1.211-1.048,3.045-0.927,4.109,0.279
				c1.043,1.207,0.928,3.051-0.284,4.104l-69.446,60.657C141.692,142.432,141.007,142.68,140.306,142.68z"/>
		</g>
		<g>
			<path fill="#2D3F50" stroke="#2D3E50" stroke-width="3" stroke-miterlimit="10" d="M225.501,99.969
				c-1.612,0-2.914-1.302-2.914-2.909V64.081h-32.979c-1.602,0-2.909-1.301-2.909-2.918c0-1.602,1.307-2.903,2.909-2.903h35.893
				c1.612,0,2.909,1.302,2.909,2.903V97.06C228.41,98.667,227.114,99.969,225.501,99.969z"/>
		</g>
	</g>
</g>
</svg>
