<?xml version="1.0" encoding="utf-8"?>
<!-- Generator: Adobe Illustrator 16.0.0, SVG Export Plug-In . SVG Version: 6.00 Build 0)  -->
<!DOCTYPE svg PUBLIC "-//W3C//DTD SVG 1.1//EN" "http://www.w3.org/Graphics/SVG/1.1/DTD/svg11.dtd">
<svg version="1.1" id="Layer_1" xmlns="http://www.w3.org/2000/svg" xmlns:xlink="http://www.w3.org/1999/xlink" x="0px" y="0px"
	 width="440.254px" height="440.718px" viewBox="0 0 440.254 440.718" enable-background="new 0 0 440.254 440.718"
	 xml:space="preserve">
<g>
	<g>
		<g>
			<path fill="#2C3E50" stroke="#2C3E50" stroke-width="10" stroke-miterlimit="10" d="M11.941,384.654
				c-2.794,0-5.062-2.264-5.062-5.059V82.201c0-2.795,2.267-5.067,5.062-5.067c2.786,0,5.054,2.272,5.054,5.067v297.394
				C16.995,382.39,14.727,384.654,11.941,384.654z"/>
		</g>
		<g>
			<path fill="#2C3E50" stroke="#2C3E50" stroke-width="10" stroke-miterlimit="10" d="M428.317,384.654H12.716
				c-2.794,0-5.053-2.264-5.053-5.059s2.259-5.053,5.053-5.053h415.604c2.782,0,5.057,2.258,5.057,5.053
				S431.102,384.654,428.317,384.654z"/>
		</g>
		<g>
			<path fill="#2C3E50" stroke="#2C3E50" stroke-width="10" stroke-miterlimit="10" d="M244.368,320.349
				c-0.412,0-0.834-0.051-1.255-0.166c-1.612-0.416-2.932-1.598-3.489-3.166L200.56,209.949L95.3,261.468
				c-1.42,0.695-3.092,0.678-4.503-0.032c-1.416-0.724-2.414-2.047-2.698-3.614L63.809,123.17c-0.499-2.749,1.333-5.378,4.077-5.873
				c2.753-0.49,5.388,1.333,5.883,4.078l23.097,128.05l104.298-51.038c1.283-0.619,2.776-0.678,4.109-0.142
				c1.333,0.532,2.373,1.613,2.868,2.955l38.455,105.438l115.203-100.629c2.107-1.833,5.297-1.622,7.146,0.477
				c1.813,2.103,1.613,5.305-0.494,7.147L247.693,319.101C246.777,319.914,245.586,320.349,244.368,320.349z"/>
		</g>
		<g>
			<path fill="#2C3E50" stroke="#2C3E50" stroke-width="10" stroke-miterlimit="10" d="M392.512,246.08
				c-2.805,0-5.066-2.263-5.066-5.058v-57.346H330.1c-2.787,0-5.059-2.268-5.059-5.071c0-2.795,2.271-5.053,5.059-5.053h62.412
				c2.803,0,5.059,2.258,5.059,5.053v62.417C397.568,243.817,395.314,246.08,392.512,246.08z"/>
		</g>
	</g>
</g>
</svg>
