<?xml version="1.0" encoding="utf-8"?>
<!-- Generator: Adobe Illustrator 16.0.0, SVG Export Plug-In . SVG Version: 6.00 Build 0)  -->
<!DOCTYPE svg PUBLIC "-//W3C//DTD SVG 1.1//EN" "http://www.w3.org/Graphics/SVG/1.1/DTD/svg11.dtd">
<svg version="1.1" id="Layer_1" xmlns="http://www.w3.org/2000/svg" xmlns:xlink="http://www.w3.org/1999/xlink" x="0px" y="0px"
	 width="440.254px" height="440.718px" viewBox="0 0 440.254 440.718" enable-background="new 0 0 440.254 440.718"
	 xml:space="preserve">
<g>
	<g>
		<g>
			<path fill="#2C3E50" stroke="#2C3E50" stroke-width="10" stroke-miterlimit="10" d="M422.555,407.529H17.683
				c-2.751,0-4.978-2.227-4.978-4.971V92.694c0-2.738,2.227-4.968,4.978-4.968h69c2.733,0,4.969,2.23,4.969,4.968
				c0,2.751-2.235,4.969-4.969,4.969H22.652v299.918h394.944V97.664h-63.941c-2.741,0-4.967-2.218-4.967-4.969
				c0-2.738,2.228-4.968,4.967-4.968h68.9c2.763,0,4.979,2.23,4.979,4.968V402.56C427.532,405.302,425.315,407.529,422.555,407.529z
				"/>
		</g>
		<g>
			<g>
				<path fill="#2C3E50" stroke="#2C3E50" stroke-width="10" stroke-miterlimit="10" d="M140.175,120.751
					c-2.739,0-4.969-2.222-4.969-4.969v-77.62c0-2.743,2.23-4.974,4.969-4.974c2.75,0,4.977,2.231,4.977,4.974v77.62
					C145.152,118.529,142.926,120.751,140.175,120.751z"/>
			</g>
			<g>
				<path fill="#2C3E50" stroke="#2C3E50" stroke-width="10" stroke-miterlimit="10" d="M303.118,120.751
					c-2.734,0-4.97-2.222-4.97-4.969v-77.62c0-2.743,2.234-4.974,4.97-4.974c2.75,0,4.978,2.231,4.978,4.974v77.62
					C308.096,118.529,305.87,120.751,303.118,120.751z"/>
			</g>
		</g>
		<g>
			<path fill="#2C3E50" stroke="#2C3E50" stroke-width="10" stroke-miterlimit="10" d="M315.842,307.365h-196.08
				c-2.751,0-4.973-2.236-4.973-4.979c0-2.762,2.221-4.979,4.973-4.979h196.08c2.75,0,4.969,2.217,4.969,4.979
				C320.811,305.128,318.592,307.365,315.842,307.365z"/>
		</g>
		<g>
			<path fill="#2C3E50" stroke="#2C3E50" stroke-width="10" stroke-miterlimit="10" d="M315.842,207.793h-196.08
				c-2.751,0-4.973-2.218-4.973-4.96c0-2.761,2.221-4.987,4.973-4.987h196.08c2.75,0,4.969,2.227,4.969,4.987
				C320.811,205.575,318.592,207.793,315.842,207.793z"/>
		</g>
	</g>
</g>
</svg>
