<?xml version="1.0" encoding="utf-8"?>
<!-- Generator: Adobe Illustrator 16.0.0, SVG Export Plug-In . SVG Version: 6.00 Build 0)  -->
<!DOCTYPE svg PUBLIC "-//W3C//DTD SVG 1.1//EN" "http://www.w3.org/Graphics/SVG/1.1/DTD/svg11.dtd">
<svg version="1.1" id="Layer_1" xmlns="http://www.w3.org/2000/svg" xmlns:xlink="http://www.w3.org/1999/xlink" x="0px" y="0px"
	 width="440.254px" height="440.718px" viewBox="0 0 440.254 440.718" enable-background="new 0 0 440.254 440.718"
	 xml:space="preserve">
<g>
	<g>
		<g>
			<path fill="#2C3E50" stroke="#2C3E50" stroke-width="10" stroke-miterlimit="10" d="M271.008,419.886H169.246
				c-2.633,0-4.744-2.123-4.744-4.752v-60.479l-42.763,42.773c-1.867,1.848-4.867,1.848-6.714,0l-71.958-71.975
				c-0.89-0.877-1.395-2.094-1.395-3.354c0-1.262,0.505-2.459,1.395-3.35L85.83,275.98H25.348c-2.617,0-4.744-2.123-4.744-4.752
				v-101.76c0-2.611,2.127-4.744,4.744-4.744H85.83l-42.763-42.772c-1.848-1.853-1.848-4.857,0-6.71l71.958-71.958
				c0.889-0.89,2.092-1.391,3.349-1.391c1.256,0,2.458,0.501,3.366,1.391l42.763,42.771V25.57c0-2.625,2.11-4.739,4.744-4.739
				H271.01c2.633,0,4.744,2.115,4.744,4.739v60.486l42.779-42.771c1.85-1.845,4.848-1.845,6.697,0l71.975,71.958
				c0.873,0.902,1.377,2.106,1.377,3.353c0,1.26-0.504,2.472-1.377,3.357l-42.779,42.772h60.482c2.633,0,4.742,2.132,4.742,4.744
				v101.763c0,2.629-2.109,4.752-4.742,4.752h-60.482l42.779,42.771c1.85,1.844,1.85,4.857,0,6.701l-71.975,71.975
				c-0.873,0.891-2.094,1.383-3.351,1.383c-1.254,0-2.476-0.492-3.348-1.383l-42.779-42.773v60.477
				C275.752,417.763,273.643,419.886,271.008,419.886z M173.99,410.404h92.275v-67.197c0-1.918,1.168-3.658,2.93-4.377
				c1.779-0.742,3.802-0.34,5.162,1.012l47.523,47.523l65.262-65.262l-47.524-47.506c-1.343-1.365-1.761-3.396-1.011-5.18
				c0.73-1.768,2.457-2.918,4.357-2.918h67.197v-92.285h-67.197c-1.9,0-3.627-1.151-4.357-2.935c-0.75-1.774-0.332-3.81,1.011-5.157
				l47.524-47.529l-65.262-65.252l-47.523,47.515c-1.36,1.36-3.383,1.761-5.162,1.021c-1.762-0.729-2.93-2.459-2.93-4.365V30.305
				H173.99v67.209c0,1.906-1.168,3.636-2.93,4.365c-1.779,0.741-3.82,0.34-5.179-1.021l-47.507-47.515L53.13,118.596l47.507,47.529
				c1.36,1.347,1.761,3.383,1.029,5.157c-0.732,1.784-2.459,2.935-4.395,2.935h-67.18V266.5H97.27c1.936,0,3.663,1.151,4.395,2.918
				c0.732,1.783,0.332,3.814-1.029,5.181L53.13,322.103l65.244,65.262l47.507-47.523c1.359-1.352,3.4-1.754,5.179-1.012
				c1.762,0.719,2.93,2.459,2.93,4.377V410.404z"/>
		</g>
		<g>
			<path fill="#2C3E50" stroke="#2C3E50" stroke-width="10" stroke-miterlimit="10" d="M220.119,286.278
				c-17.597,0-34.148-6.866-46.601-19.319c-25.706-25.696-25.706-67.509,0-93.216c16.359-16.368,40.479-22.986,62.941-17.261
				c2.547,0.645,4.063,3.226,3.418,5.764c-0.646,2.546-3.227,4.072-5.756,3.427c-19.235-4.901-39.885,0.754-53.89,14.781
				c-22.009,21.992-22.009,57.794,0,79.804c10.657,10.671,24.817,16.537,39.886,16.537c15.085,0,29.265-5.867,39.921-16.537
				c14.004-14,19.672-34.661,14.771-53.895c-0.646-2.546,0.891-5.119,3.438-5.764c2.527-0.645,5.109,0.885,5.754,3.419
				c5.721,22.472-0.891,46.573-17.266,62.94C254.284,279.412,237.75,286.278,220.119,286.278z"/>
		</g>
	</g>
</g>
</svg>
