<?xml version="1.0" encoding="utf-8"?>
<!-- Generator: Adobe Illustrator 16.0.0, SVG Export Plug-In . SVG Version: 6.00 Build 0)  -->
<!DOCTYPE svg PUBLIC "-//W3C//DTD SVG 1.1//EN" "http://www.w3.org/Graphics/SVG/1.1/DTD/svg11.dtd">
<svg version="1.1" id="Layer_1" xmlns="http://www.w3.org/2000/svg" xmlns:xlink="http://www.w3.org/1999/xlink" x="0px" y="0px"
	 width="430.811px" height="186.676px" viewBox="0 0 430.811 186.676" enable-background="new 0 0 430.811 186.676"
	 xml:space="preserve">
<g>
	<path fill="#FFFFFF" d="M143.211,162.692c-8.548-8.555-15.174-18.703-19.92-30.498c-4.751-11.804-7.127-24.736-7.127-38.846
		c0-13.617,2.412-26.317,7.241-38.108c4.817-11.802,11.567-22.09,20.288-30.892c0.488-0.479,0.986-0.951,1.489-1.424v-9.878h-44.482
		v81.738L50.852,13.046H4.708v160.142h43.658V82.172l57.51,91.016h39.308v-8.624C144.52,163.944,143.856,163.327,143.211,162.692z"
		/>
	<path fill="#FFFFFF" d="M383.287,115.661c-3.429,5.386-7.946,9.618-13.536,12.729c-5.604,3.092-11.624,4.641-18.094,4.641
		c-5.394,0-10.464-1.035-15.219-3.092c-4.741-2.059-8.906-4.926-12.422-8.596c-3.506-3.646-6.294-7.883-8.373-12.721
		c-2.075-4.826-3.107-9.928-3.107-15.309c0-5.922,1.008-11.4,3.011-16.432c2.004-5.053,4.746-9.362,8.285-12.932
		c3.507-3.607,7.639-6.396,12.403-8.399c4.75-1.978,9.886-2.993,15.422-2.993c6.32,0,12.573,1.3,18.707,3.918
		c6.14,2.637,10.938,6.637,14.376,12.006l35.585-27.724c-7.588-10.192-17.367-18.101-29.375-23.685
		c-11.991-5.584-25.09-8.372-39.293-8.372c-12.295,0-23.569,2.175-33.839,6.52c-10.27,4.347-19.211,10.306-26.794,17.894
		c-0.303,0.285-0.567,0.588-0.858,0.899c4.529,6.243,8.326,13.112,11.374,20.617c4.821,11.874,7.232,24.79,7.232,38.718
		c0,14.241-2.374,27.326-7.104,39.181c-3.037,7.599-6.864,14.516-11.453,20.761c0.134,0.133,0.255,0.305,0.397,0.437
		c7.447,7.455,16.378,13.282,26.804,17.483c10.396,4.203,21.82,6.314,34.24,6.314c14.881,0,28.328-3.088,40.327-9.225
		c11.997-6.127,21.654-14.705,28.961-25.744L383.287,115.661z"/>
</g>
<g>
	<g>
		<g>
			<path fill="#FFFFFF" d="M239.752,62.994c-3.467-3.527-7.479-6.27-12.063-8.212c-4.572-1.944-9.444-2.911-14.571-2.911
				c-5.535,0-10.72,1.014-15.483,3.018c-4.8,1.995-8.943,4.836-12.487,8.436c-3.533,3.589-6.316,7.934-8.32,13.003
				c-2.021,5.069-3.015,10.554-3.015,16.505c0,5.431,1.042,10.553,3.104,15.405c2.097,4.864,4.908,9.149,8.434,12.812
				c3.545,3.66,7.694,6.545,12.491,8.619c4.771,2.085,9.889,3.137,15.276,3.137c5.127,0,10.022-1.052,14.662-3.137
				c4.67-2.074,8.681-4.908,12.073-8.523c3.391-3.6,6.094-7.836,8.12-12.691c1.996-4.864,3.025-10.053,3.025-15.621
				c0-6.217-1.029-11.874-3.025-16.932C245.947,70.832,243.22,66.541,239.752,62.994z"/>
		</g>
	</g>
</g>
</svg>
