<?xml version="1.0" encoding="utf-8"?>
<!-- Generator: Adobe Illustrator 16.0.0, SVG Export Plug-In . SVG Version: 6.00 Build 0)  -->
<!DOCTYPE svg PUBLIC "-//W3C//DTD SVG 1.1//EN" "http://www.w3.org/Graphics/SVG/1.1/DTD/svg11.dtd">
<svg version="1.1" id="Layer_1" xmlns="http://www.w3.org/2000/svg" xmlns:xlink="http://www.w3.org/1999/xlink" x="0px" y="0px"
	 width="85.04px" height="85.04px" viewBox="0 0 85.04 85.04" enable-background="new 0 0 85.04 85.04" xml:space="preserve">
<path fill="#FFFFFF" d="M84.494,73.835L46.01,7.175c-0.721-1.246-2.051-2.017-3.492-2.017c-1.441,0-2.771,0.771-3.49,2.017
	L0.539,73.835c-0.719,1.249-0.719,2.784,0,4.03c0.721,1.249,2.053,2.017,3.493,2.017h76.971c1.442,0,2.773-0.768,3.491-2.017
	C85.215,76.619,85.215,75.084,84.494,73.835z M38.798,29.37c0-0.611,0.934-1.109,2.089-1.109h3.263c1.151,0,2.088,0.498,2.088,1.109
	v21.266c0,0.614-0.937,1.112-2.088,1.112h-3.263c-1.155,0-2.089-0.498-2.089-1.112V29.37z M46.705,64.981
	c0,1.394-1.051,2.522-2.352,2.522h-3.671c-1.299,0-2.351-1.129-2.351-2.522v-3.687c0-1.39,1.052-2.517,2.351-2.517h3.671
	c1.301,0,2.352,1.127,2.352,2.517V64.981z"/>
</svg>
