<?xml version="1.0" encoding="utf-8"?>
<!-- Generator: Adobe Illustrator 16.0.0, SVG Export Plug-In . SVG Version: 6.00 Build 0)  -->
<!DOCTYPE svg PUBLIC "-//W3C//DTD SVG 1.1//EN" "http://www.w3.org/Graphics/SVG/1.1/DTD/svg11.dtd">
<svg version="1.1" id="Layer_1" xmlns="http://www.w3.org/2000/svg" xmlns:xlink="http://www.w3.org/1999/xlink" x="0px" y="0px"
	 width="85.04px" height="85.04px" viewBox="0 0 85.04 85.04" enable-background="new 0 0 85.04 85.04" xml:space="preserve">
<path fill="#FFFFFF" d="M80.704,6.841H4.539C2.031,6.841,0,8.874,0,11.378v49.348c0,2.505,2.031,4.535,4.539,4.535h12.058
	l-6.114,6.114c-0.543,0.54-0.158,1.809,0.865,2.828l2.884,2.888c1.02,1.02,2.288,1.402,2.832,0.862l12.692-12.692h50.949
	c2.504,0,4.535-2.03,4.535-4.535V11.378C85.239,8.874,83.208,6.841,80.704,6.841z M16.076,33.747c0-1.742,1.315-3.15,2.94-3.15
	h4.591c1.625,0,2.94,1.408,2.94,3.15v4.612c0,1.739-1.315,3.15-2.94,3.15h-4.591c-1.625,0-2.94-1.412-2.94-3.15V33.747z
	 M47.856,38.358c0,1.739-1.314,3.15-2.939,3.15h-4.591c-1.625,0-2.94-1.412-2.94-3.15v-4.612c0-1.742,1.315-3.15,2.94-3.15h4.591
	c1.625,0,2.939,1.408,2.939,3.15V38.358z M69.166,38.358c0,1.739-1.314,3.15-2.939,3.15h-4.591c-1.625,0-2.94-1.412-2.94-3.15
	v-4.612c0-1.742,1.315-3.15,2.94-3.15h4.591c1.625,0,2.939,1.408,2.939,3.15V38.358z"/>
</svg>
