<?xml version="1.0" encoding="utf-8"?>
<!-- Generator: Adobe Illustrator 16.0.0, SVG Export Plug-In . SVG Version: 6.00 Build 0)  -->
<!DOCTYPE svg PUBLIC "-//W3C//DTD SVG 1.1//EN" "http://www.w3.org/Graphics/SVG/1.1/DTD/svg11.dtd">
<svg version="1.1" id="Layer_1" xmlns="http://www.w3.org/2000/svg" xmlns:xlink="http://www.w3.org/1999/xlink" x="0px" y="0px"
	 width="85.04px" height="85.04px" viewBox="0 0 85.04 85.04" enable-background="new 0 0 85.04 85.04" xml:space="preserve">
<path fill="#FFFFFF" d="M75.185,49.079c-0.59,0.416-1.697-0.137-2.487-1.245l-2.217-3.118c-0.784-1.106-0.943-2.339-0.354-2.757
	l6.032-4.288C69.222,28.715,58.8,22.599,46.916,21.387v7.349c0,0.723-1.1,1.307-2.452,1.307h-3.832
	c-1.355,0-2.451-0.584-2.451-1.307v-7.349C25.72,22.658,14.863,29.322,7.955,38.995l6.379,4.538
	c0.589,0.416,0.431,1.649-0.354,2.754l-2.219,3.12c-0.788,1.106-1.896,1.662-2.485,1.243l-5.661-4.021
	c-2.281,5.215-3.557,10.969-3.557,17.024h33.544L50.91,46.347c0.51-0.51,1.697-0.148,2.657,0.81l2.71,2.71
	c0.957,0.96,1.318,2.149,0.809,2.657l-11.13,11.13h39.083c0-6.653-1.531-12.946-4.259-18.553L75.185,49.079z"/>
</svg>
