<?xml version="1.0" encoding="utf-8"?>
<!-- Generator: Adobe Illustrator 16.0.0, SVG Export Plug-In . SVG Version: 6.00 Build 0)  -->
<!DOCTYPE svg PUBLIC "-//W3C//DTD SVG 1.1//EN" "http://www.w3.org/Graphics/SVG/1.1/DTD/svg11.dtd">
<svg version="1.1" id="Layer_1" xmlns="http://www.w3.org/2000/svg" xmlns:xlink="http://www.w3.org/1999/xlink" x="0px" y="0px"
	 width="85.04px" height="85.04px" viewBox="0 0 85.04 85.04" enable-background="new 0 0 85.04 85.04" xml:space="preserve">
<g>
	<g>
		<path fill="#FFFFFF" d="M64.632,10.069H0.449c-0.239,0-0.434,0.229-0.434,0.511v7.182h65.052V10.58
			C65.066,10.298,64.871,10.069,64.632,10.069z"/>
		<path fill="#FFFFFF" d="M14.84,28.29h50.227v-4.319H0.015v30.1c0,0.285,0.195,0.512,0.434,0.512H14.84V28.29z"/>
	</g>
	<g>
		<path fill="#FFFFFF" d="M19.974,77.381c0,0.281,0.195,0.512,0.434,0.512h64.183c0.239,0,0.435-0.23,0.435-0.512V47.277H19.974
			V77.381z"/>
		<path fill="#FFFFFF" d="M84.591,33.377H20.408c-0.239,0-0.434,0.229-0.434,0.509v7.182h65.052v-7.182
			C85.025,33.606,84.83,33.377,84.591,33.377z"/>
	</g>
</g>
</svg>
