<?xml version="1.0" encoding="utf-8"?>
<!-- Generator: Adobe Illustrator 16.0.0, SVG Export Plug-In . SVG Version: 6.00 Build 0)  -->
<!DOCTYPE svg PUBLIC "-//W3C//DTD SVG 1.1//EN" "http://www.w3.org/Graphics/SVG/1.1/DTD/svg11.dtd">
<svg version="1.1" id="Layer_1" xmlns="http://www.w3.org/2000/svg" xmlns:xlink="http://www.w3.org/1999/xlink" x="0px" y="0px"
	 width="85.04px" height="85.04px" viewBox="0 0 85.04 85.04" enable-background="new 0 0 85.04 85.04" xml:space="preserve">
<g>
	<g>
		<path fill="#FFFFFF" d="M39.504,29.625h6.256c2.21,0,4-1.917,4-4.292v-6.275c0-2.371-1.79-4.292-4-4.292h-6.256
			c-2.21,0-4,1.921-4,4.292v6.275C35.504,27.709,37.294,29.625,39.504,29.625z"/>
		<path fill="#FFFFFF" d="M57.241,34.329H28.029c-1.484,0-2.688,1.203-2.688,2.688v7.14v7.789v6.982v8.661v2.684h2.688h29.212h2.684
			v-2.684v-8.661V37.017C59.925,35.532,58.721,34.329,57.241,34.329z"/>
	</g>
	<g>
		<path fill="#FFFFFF" d="M72.574,29.66h3.875c1.37,0,2.479-1.188,2.479-2.661v-3.886c0-1.47-1.108-2.659-2.479-2.659h-3.875
			c-1.369,0-2.478,1.189-2.478,2.659v3.886C70.097,28.471,71.205,29.66,72.574,29.66z"/>
		<path fill="#FFFFFF" d="M83.562,32.574H65.465c-0.921,0-1.666,0.743-1.666,1.664v4.422v4.825v4.328v5.367v1.662h1.666h18.097
			h1.664V53.18v-5.367V34.238C85.226,33.316,84.479,32.574,83.562,32.574z"/>
	</g>
	<g>
		<path fill="#FFFFFF" d="M8.817,29.504h3.875c1.37,0,2.478-1.189,2.478-2.662v-3.888c0-1.468-1.108-2.659-2.478-2.659H8.817
			c-1.371,0-2.479,1.191-2.479,2.659v3.888C6.338,28.315,7.446,29.504,8.817,29.504z"/>
		<path fill="#FFFFFF" d="M19.805,32.417H1.707c-0.92,0-1.665,0.744-1.665,1.663v4.423v4.826v4.329v5.366v1.661h1.665h18.098h1.664
			v-1.661v-5.366V34.08C21.468,33.161,20.722,32.417,19.805,32.417z"/>
	</g>
</g>
</svg>
