<?xml version="1.0" encoding="utf-8"?>
<!-- Generator: Adobe Illustrator 16.0.0, SVG Export Plug-In . SVG Version: 6.00 Build 0)  -->
<!DOCTYPE svg PUBLIC "-//W3C//DTD SVG 1.1//EN" "http://www.w3.org/Graphics/SVG/1.1/DTD/svg11.dtd">
<svg version="1.1" id="Layer_1" xmlns="http://www.w3.org/2000/svg" xmlns:xlink="http://www.w3.org/1999/xlink" x="0px" y="0px"
	 width="85.04px" height="85.04px" viewBox="0 0 85.04 85.04" enable-background="new 0 0 85.04 85.04" xml:space="preserve">
<g>
	<path d="M83.092,11.296c1.611-1.711,1.611-4.322,0.014-5.821l-4.529-4.233c-1.596-1.505-4.197-1.328-5.809,0.389L71.612,2.87
		l10.323,9.668L83.092,11.296z"/>
	<rect x="43.766" y="15.925" transform="matrix(0.6835 -0.73 0.73 0.6835 2.9795 52.866)" width="37.368" height="14.144"/>
	<polygon points="41.589,40.106 39.987,46.993 46.75,44.941 53.516,42.888 48.355,38.051 43.193,33.222 	"/>
	<path d="M80.776,41.467h-5.181c-1.763,0-3.193,0.74-3.294,1.671h-0.033v29.85H12.57V13.291h29.848v-0.015h0.344
		c0.973,0,1.758-1.487,1.758-3.313V4.78c0-1.839-0.785-3.321-1.758-3.321h-0.344H21.735h-9.489c-6.348,0-11.51,5.163-11.51,11.509
		V73.31c0,6.347,5.162,11.511,11.51,11.511h60.346c6.345,0,11.506-5.164,11.506-11.511v-9.046V43.238v-0.1h-0.018
		C83.982,42.208,82.556,41.467,80.776,41.467z"/>
</g>
</svg>
