<?xml version="1.0" encoding="utf-8"?>
<!-- Generator: Adobe Illustrator 16.0.0, SVG Export Plug-In . SVG Version: 6.00 Build 0)  -->
<!DOCTYPE svg PUBLIC "-//W3C//DTD SVG 1.1//EN" "http://www.w3.org/Graphics/SVG/1.1/DTD/svg11.dtd">
<svg version="1.1" id="Layer_1" xmlns="http://www.w3.org/2000/svg" xmlns:xlink="http://www.w3.org/1999/xlink" x="0px" y="0px"
	 width="85.04px" height="85.04px" viewBox="0 0 85.04 85.04" enable-background="new 0 0 85.04 85.04" xml:space="preserve">
<path d="M42.519,0.336c-23.298,0-42.182,18.887-42.182,42.185c0,23.297,18.884,42.183,42.182,42.183
	c23.3,0,42.185-18.886,42.185-42.183C84.704,19.223,65.819,0.336,42.519,0.336z M65.725,53.698c0.988,0.988,0.285,3.303-1.584,5.172
	l-5.271,5.275c-1.863,1.863-4.184,2.572-5.182,1.582L42.519,54.549L31.346,65.721c-0.991,0.994-3.311,0.287-5.178-1.576
	l-5.276-5.275c-1.867-1.869-2.568-4.184-1.576-5.176l11.176-11.172L19.315,31.345c-0.992-0.991-0.291-3.307,1.576-5.173l5.276-5.274
	c1.867-1.866,4.187-2.573,5.178-1.58L42.519,30.49l11.175-11.177c0.992-0.988,3.313-0.281,5.176,1.585l5.271,5.274
	c1.869,1.866,2.572,4.182,1.584,5.173L54.542,42.521L65.725,53.698z"/>
</svg>
