<?xml version="1.0" encoding="utf-8"?>
<!-- Generator: Adobe Illustrator 16.0.0, SVG Export Plug-In . SVG Version: 6.00 Build 0)  -->
<!DOCTYPE svg PUBLIC "-//W3C//DTD SVG 1.1//EN" "http://www.w3.org/Graphics/SVG/1.1/DTD/svg11.dtd">
<svg version="1.1" id="Layer_1" xmlns="http://www.w3.org/2000/svg" xmlns:xlink="http://www.w3.org/1999/xlink" x="0px" y="0px"
	 width="85.04px" height="85.04px" viewBox="0 0 85.04 85.04" enable-background="new 0 0 85.04 85.04" xml:space="preserve">
<g>
	<g>
		<path d="M33.604,59.704L64.68,28.625c-0.264-0.067-0.535-0.113-0.818-0.113H3.342c-0.283,0-0.554,0.046-0.818,0.112L33.604,59.704
			z"/>
		<polygon points="52.336,51.653 67.206,66.524 67.206,36.784 		"/>
		<polygon points="-0.002,36.783 -0.002,66.524 14.869,51.653 		"/>
		<path d="M46.997,56.997L36.274,67.717l-2.673,0.057l-2.669-0.057L20.211,56.997L2.526,74.682c0.263,0.066,0.533,0.111,0.816,0.111
			h60.52c0.283,0,0.557-0.045,0.818-0.113L46.997,56.997z"/>
	</g>
	<path d="M83.947,18.156h-6.815v-6.817c0-0.604-0.922-1.094-2.06-1.094h-3.217c-1.138,0-2.06,0.49-2.06,1.094v6.817H62.98
		c-0.604,0-1.095,0.922-1.095,2.059v3.219c0,1.136,0.49,2.059,1.095,2.059h6.815v6.814c0,0.606,0.922,1.097,2.06,1.097h3.217
		c1.138,0,2.06-0.49,2.06-1.097v-6.814h6.815c0.604,0,1.095-0.922,1.095-2.059v-3.219C85.042,19.078,84.551,18.156,83.947,18.156z"
		/>
</g>
</svg>
