<?xml version="1.0" encoding="utf-8"?>
<!-- Generator: Adobe Illustrator 16.0.0, SVG Export Plug-In . SVG Version: 6.00 Build 0)  -->
<!DOCTYPE svg PUBLIC "-//W3C//DTD SVG 1.1//EN" "http://www.w3.org/Graphics/SVG/1.1/DTD/svg11.dtd">
<svg version="1.1" id="Layer_1" xmlns="http://www.w3.org/2000/svg" xmlns:xlink="http://www.w3.org/1999/xlink" x="0px" y="0px"
	 width="566.781px" height="135.24px" viewBox="0 0 566.781 135.24" enable-background="new 0 0 566.781 135.24"
	 xml:space="preserve">
<g>
	<g>
		<path fill="#FFFFFF" d="M166.262,46.69c-4.304-4.064-9.228-5.42-15.015-5.42c-7.138,0-11.075,2.218-11.075,6.036
			c0,3.937,3.569,6.149,11.322,6.646c11.447,0.735,25.97,3.321,25.97,19.444c0,10.712-8.74,19.941-26.094,19.941
			c-9.6,0-19.2-1.602-28.064-10.835l7.386-10.707c4.309,4.801,14.156,8.369,20.927,8.493c5.659,0.123,10.955-2.828,10.955-7.262
			c0-4.186-3.45-5.907-12.066-6.398c-11.447-0.863-25.107-5.048-25.107-18.833c0-14.032,14.524-18.957,25.603-18.957
			c9.476,0,16.614,1.848,23.632,8.001L166.262,46.69z"/>
		<path fill="#FFFFFF" d="M182.27,116.6V30.563h14.032l0.983,8.369c4.676-6.771,12.802-9.725,19.696-9.725
			c18.708,0,31.137,13.909,31.137,31.758c0,17.725-11.198,31.758-30.646,31.758c-6.403,0-15.879-1.972-20.188-8.615V116.6H182.27z
			 M233.104,60.966c0-9.476-6.399-17.232-17.234-17.232c-10.831,0-17.229,7.757-17.229,17.232c0,9.477,7.014,17.233,17.229,17.233
			C226.09,78.199,233.104,70.442,233.104,60.966z"/>
		<path fill="#FFFFFF" d="M314.712,60.966c0,17.477-11.938,31.635-31.63,31.635c-19.695,0-31.51-14.158-31.51-31.635
			c0-17.354,12.063-31.634,31.387-31.634C302.282,29.333,314.712,43.612,314.712,60.966z M266.588,60.966
			c0,9.233,5.54,17.849,16.494,17.849c10.951,0,16.49-8.615,16.49-17.849c0-9.108-6.397-17.969-16.49-17.969
			C272.247,42.998,266.588,51.857,266.588,60.966z"/>
		<path fill="#FFFFFF" d="M340.196,13.454v17.234h16.737v12.925h-16.861v26.215c0,5.787,3.201,8.615,7.878,8.615
			c2.338,0,5.047-0.738,7.262-1.846l4.186,12.803c-4.31,1.724-7.879,2.462-12.431,2.586c-13.169,0.491-21.786-7.02-21.786-22.158
			V43.612h-11.327V30.688h11.327V15.057L340.196,13.454z"/>
		<path fill="#FFFFFF" d="M379.707,13.454c0,11.695-17.726,11.695-17.726,0C361.982,1.764,379.707,1.764,379.707,13.454z
			 M363.336,30.32v60.926h15.016V30.32H363.336z"/>
		<path fill="#FFFFFF" d="M439.157,83.491c-7.016,6.891-14.399,9.6-23.385,9.6c-17.603,0-32.249-10.587-32.249-32.125
			c0-21.537,14.646-32.125,32.249-32.125c8.612,0,15.259,2.463,21.905,8.985l-9.477,9.971c-3.568-3.201-8.001-4.8-12.187-4.8
			c-10.092,0-17.478,7.381-17.478,17.969c0,11.571,7.877,17.725,17.232,17.725c4.801,0,9.601-1.354,13.295-5.047L439.157,83.491z"/>
		<path fill="#FFFFFF" d="M456.387,30.563V62.32c0,9.233,5.048,16.246,14.647,16.246c9.232,0,15.512-7.753,15.512-16.984V30.563
			h14.892V91.37H488.02l-0.98-8.251c-6.28,6.156-12.063,9.109-20.556,9.109c-14.523,0-25.111-10.957-25.111-29.784V30.563H456.387z"
			/>
		<path fill="#FFFFFF" d="M549.567,46.69c-4.306-4.064-9.229-5.42-15.017-5.42c-7.139,0-11.075,2.218-11.075,6.036
			c0,3.937,3.568,6.149,11.322,6.646c11.447,0.735,25.972,3.321,25.972,19.444c0,10.712-8.74,19.941-26.096,19.941
			c-9.6,0-19.199-1.602-28.063-10.835l7.386-10.707c4.309,4.801,14.156,8.369,20.927,8.493c5.659,0.123,10.955-2.828,10.955-7.262
			c0-4.186-3.45-5.907-12.065-6.398c-11.445-0.863-25.106-5.048-25.106-18.833c0-14.032,14.523-18.957,25.604-18.957
			c9.477,0,16.613,1.848,23.633,8.001L549.567,46.69z"/>
	</g>
	<path fill="#FFFFFF" d="M51.585,11.713c-25.585,0-46.33,20.745-46.33,46.331c0,2.612,0.226,5.172,0.642,7.665
		c4.242,32.385,45.692,58.141,45.692,58.141s41.474-25.771,45.693-58.167c0.412-2.484,0.638-5.035,0.638-7.639
		C97.921,32.458,77.176,11.713,51.585,11.713z M73.438,74.264L55.203,94.063c-4.565,4.954-12.278,5.272-17.234,0.712
		c-4.955-4.569-5.273-12.284-0.708-17.233l5.105-5.547c-3.672,0.707-7.619-0.263-10.583-2.991
		c-4.951-4.561-5.27-12.277-0.708-17.233l18.239-19.802c4.561-4.951,12.274-5.274,17.229-0.704
		c4.959,4.561,5.278,12.273,0.708,17.233l-5.103,5.54c3.672-0.708,7.618,0.26,10.58,2.983
		C77.689,61.591,77.994,69.304,73.438,74.264z"/>
</g>
<path fill="#FFFFFF" d="M321.657,115.945h-12.812l-2.101,4.62h-5.005l10.991-24.503h5.04l10.991,24.503h-5.041L321.657,115.945z
	 M315.251,101.208l-4.55,10.432h9.101L315.251,101.208z"/>
<path fill="#FFFFFF" d="M347.348,96.097v24.468h-3.99l-0.28-2.38c-1.33,2.064-3.466,2.765-5.565,2.765
	c-5.076,0-8.892-3.36-8.892-9.03c0-5.951,3.746-9.031,8.786-9.031c1.82,0,4.655,0.98,5.671,2.766v-9.557H347.348z M332.891,111.92
	c0,3.01,2.171,5.075,4.9,5.075c2.695,0,5.006-1.96,5.006-5.075c0-3.011-2.311-5.041-5.006-5.041
	C335.062,106.879,332.891,108.803,332.891,111.92z"/>
<path fill="#FFFFFF" d="M362.535,120.565v-9.241c0-2.275-1.189-4.34-3.535-4.34c-2.31,0-3.675,2.064-3.675,4.34v9.241h-4.271
	v-17.292h3.955l0.315,2.101c0.91-1.75,2.905-2.381,4.55-2.381c2.065,0,4.131,0.841,5.111,3.221c1.54-2.45,3.535-3.15,5.775-3.15
	c4.9,0,7.315,3.011,7.315,8.191v9.311h-4.271v-9.311c0-2.275-0.945-4.201-3.255-4.201c-2.311,0-3.746,1.995-3.746,4.271v9.241
	H362.535z"/>
<path fill="#FFFFFF" d="M387.071,98.443c0,3.325-5.041,3.325-5.041,0S387.071,95.118,387.071,98.443z M382.416,103.238v17.327h4.271
	v-17.327H382.416z"/>
<path fill="#FFFFFF" d="M403.241,120.565v-9.031c0-2.625-1.436-4.62-4.165-4.62c-2.626,0-4.411,2.205-4.411,4.83v8.821h-4.235
	v-17.292h3.815l0.28,2.346c1.75-1.716,3.5-2.591,5.671-2.591c4.06,0,7.315,3.046,7.315,8.471v9.066H403.241z"/>
<path fill="#FFFFFF" d="M415.841,98.443c0,3.325-5.041,3.325-5.041,0S415.841,95.118,415.841,98.443z M411.186,103.238v17.327h4.271
	v-17.327H411.186z"/>
<path fill="#FFFFFF" d="M430.575,107.894c-1.225-1.155-2.625-1.541-4.271-1.541c-2.029,0-3.149,0.631-3.149,1.716
	c0,1.12,1.015,1.75,3.22,1.89c3.256,0.21,7.386,0.945,7.386,5.531c0,3.045-2.485,5.67-7.421,5.67c-2.729,0-5.46-0.455-7.98-3.08
	l2.101-3.045c1.225,1.365,4.025,2.38,5.95,2.415c1.61,0.035,3.115-0.805,3.115-2.065c0-1.19-0.98-1.68-3.431-1.82
	c-3.255-0.245-7.141-1.435-7.141-5.355c0-3.99,4.131-5.391,7.281-5.391c2.695,0,4.726,0.525,6.721,2.275L430.575,107.894z"/>
<path fill="#FFFFFF" d="M442.511,98.443v4.9h4.761v3.675h-4.796v7.456c0,1.646,0.91,2.45,2.24,2.45c0.665,0,1.436-0.21,2.065-0.524
	l1.189,3.64c-1.225,0.49-2.24,0.7-3.535,0.735c-3.745,0.14-6.195-1.995-6.195-6.301v-7.456h-3.221v-3.675h3.221v-4.445
	L442.511,98.443z"/>
<path fill="#FFFFFF" d="M454.41,103.308l0.315,1.995c1.33-2.135,3.115-2.45,4.865-2.45c1.785,0,3.5,0.7,4.445,1.646l-1.925,3.71
	c-0.875-0.735-1.681-1.12-3.081-1.12c-2.24,0-4.305,1.19-4.305,4.376v9.101h-4.271v-17.257H454.41z"/>
<path fill="#FFFFFF" d="M479.331,103.308h4.095v17.257H479.4l-0.21-2.521c-0.979,2.03-3.675,3.011-5.601,3.046
	c-5.11,0.035-8.891-3.115-8.891-9.171c0-5.951,3.955-9.066,8.996-9.031c2.311,0,4.516,1.085,5.495,2.8L479.331,103.308z
	 M468.97,111.92c0,3.29,2.275,5.25,5.11,5.25c6.721,0,6.721-10.466,0-10.466C471.245,106.704,468.97,108.629,468.97,111.92z"/>
<path fill="#FFFFFF" d="M491.684,125.711c1.015,1.33,3.745,1.505,4.165,0.14c0.385-1.295-1.646-2.1-2.976-1.189l-1.015-0.771
	l1.085-3.115c-3.78-0.875-6.546-3.78-6.546-8.821c0-6.125,4.166-9.136,9.171-9.136c2.45,0,4.341,0.7,6.231,2.556l-2.695,2.835
	c-1.016-0.91-2.275-1.365-3.466-1.365c-2.87,0-4.971,2.101-4.971,5.11c0,3.291,2.24,5.041,4.9,5.041c1.365,0,2.73-0.385,3.78-1.436
	l2.871,2.801c-1.926,1.89-3.886,2.66-6.301,2.73l-0.42,1.33c3.22,0.104,3.92,2.205,3.605,3.92c-0.876,3.921-7.142,4.271-9.276,0.91
	L491.684,125.711z"/>
<path fill="#FFFFFF" d="M517.794,103.308h4.095v17.257h-4.025l-0.21-2.521c-0.979,2.03-3.675,3.011-5.601,3.046
	c-5.11,0.035-8.891-3.115-8.891-9.171c0-5.951,3.955-9.066,8.996-9.031c2.311,0,4.516,1.085,5.495,2.8L517.794,103.308z
	 M507.397,98.653c0.84-2.065,2.205-3.535,4.516-3.011c1.646,0.386,3.255,2.205,4.341,0.035l2.8,1.33
	c-1.015,2.695-2.766,3.501-4.41,3.08c-1.716-0.489-3.221-2.555-4.586,0L507.397,98.653z M507.433,111.92
	c0,3.29,2.275,5.25,5.11,5.25c6.721,0,6.721-10.466,0-10.466C509.708,106.704,507.433,108.629,507.433,111.92z"/>
<path fill="#FFFFFF" d="M542.644,111.954c0,4.971-3.396,8.996-8.996,8.996s-8.961-4.025-8.961-8.996
	c0-4.936,3.431-8.995,8.927-8.995C539.108,102.959,542.644,107.018,542.644,111.954z M528.957,111.954
	c0,2.626,1.575,5.076,4.69,5.076s4.69-2.45,4.69-5.076c0-2.59-1.819-5.11-4.69-5.11
	C530.567,106.844,528.957,109.364,528.957,111.954z"/>
</svg>
