<?xml version="1.0" encoding="utf-8"?>
<!-- Generator: Adobe Illustrator 16.0.0, SVG Export Plug-In . SVG Version: 6.00 Build 0)  -->
<!DOCTYPE svg PUBLIC "-//W3C//DTD SVG 1.1//EN" "http://www.w3.org/Graphics/SVG/1.1/DTD/svg11.dtd">
<svg version="1.1" id="Layer_1" xmlns="http://www.w3.org/2000/svg" xmlns:xlink="http://www.w3.org/1999/xlink" x="0px" y="0px"
	 width="85.04px" height="85.04px" viewBox="0 0 85.04 85.04" enable-background="new 0 0 85.04 85.04" xml:space="preserve">
<path d="M42.519,0.204c-23.333,0-42.315,18.982-42.315,42.317c0,23.332,18.982,42.313,42.315,42.313
	c23.332,0,42.317-18.981,42.317-42.313C84.836,19.186,65.85,0.204,42.519,0.204z M47.518,65.81c0,0.827-1.258,1.499-2.805,1.499
	h-4.386c-1.555,0-2.809-0.672-2.809-1.499V19.222c0-0.823,1.254-1.488,2.809-1.488h4.386c1.547,0,2.805,0.665,2.805,1.488V65.81z"/>
</svg>
