<?xml version="1.0" encoding="utf-8"?>
<!-- Generator: Adobe Illustrator 16.0.0, SVG Export Plug-In . SVG Version: 6.00 Build 0)  -->
<!DOCTYPE svg PUBLIC "-//W3C//DTD SVG 1.1//EN" "http://www.w3.org/Graphics/SVG/1.1/DTD/svg11.dtd">
<svg version="1.1" id="Layer_1" xmlns="http://www.w3.org/2000/svg" xmlns:xlink="http://www.w3.org/1999/xlink" x="0px" y="0px"
	 width="85.04px" height="85.04px" viewBox="0 0 85.04 85.04" enable-background="new 0 0 85.04 85.04" xml:space="preserve">
<g>
	<g>
		<path fill="#FFFFFF" d="M18.437,46.875c-0.721,0-1.306-1.097-1.306-2.441v-3.822c0-1.356,0.585-2.449,1.306-2.449h36.505
			c0.718,0,1.298,1.093,1.298,2.449v3.822c0,1.345-0.58,2.441-1.298,2.441H18.437z"/>
		<path fill="#FFFFFF" d="M84.939,42.511c0.106-0.428,0.077-0.813-0.157-1.043L56.079,12.762c-0.512-0.509-1.697-0.153-2.654,0.807
			l-2.702,2.702c-0.953,0.956-1.314,2.145-0.806,2.654L73.514,42.52l-23.601,23.6c-0.506,0.504-0.139,1.693,0.812,2.645l2.703,2.701
			c0.96,0.959,2.139,1.324,2.647,0.814l28.706-28.705C85.02,43.336,85.052,42.951,84.939,42.511z"/>
	</g>
	<path fill="#FFFFFF" d="M35.357,17.2v-0.012h0.235c0.828,0,1.495-1.261,1.495-2.81V9.981c0-1.561-0.667-2.817-1.495-2.817h-0.235
		H17.754H9.763C4.377,7.165,0,11.543,0,16.926V68.11c0,5.385,4.377,9.766,9.763,9.766h7.992h17.838h0.209l-0.003-0.039
		c0.729-0.193,1.289-1.355,1.289-2.773v-4.395c0-1.561-0.667-2.818-1.495-2.818h-0.064v-0.014H10.037V17.2H35.357z"/>
</g>
</svg>
