<?xml version="1.0" encoding="utf-8"?>
<!-- Generator: Adobe Illustrator 16.0.0, SVG Export Plug-In . SVG Version: 6.00 Build 0)  -->
<!DOCTYPE svg PUBLIC "-//W3C//DTD SVG 1.1//EN" "http://www.w3.org/Graphics/SVG/1.1/DTD/svg11.dtd">
<svg version="1.1" id="Layer_1" xmlns="http://www.w3.org/2000/svg" xmlns:xlink="http://www.w3.org/1999/xlink" x="0px" y="0px"
	 width="85.04px" height="85.04px" viewBox="0 0 85.04 85.04" enable-background="new 0 0 85.04 85.04" xml:space="preserve">
<g>
	<path fill="#FFFFFF" d="M65.705,25.298c0.444-0.911-0.587-2.324-2.299-3.156l-3.863-1.878l7.751-8.362
		c0.444-0.909-0.581-2.326-2.296-3.158L48.211,0.582c-1.71-0.831-3.456-0.764-3.902,0.146l-1.782,11.261l-3.863-1.876
		c-1.712-0.833-3.456-0.769-3.902,0.142L19.25,26.978c-0.441,0.912,0.585,2.327,2.302,3.161l36.674,17.833
		c1.716,0.831,3.461,0.767,3.902-0.146L65.705,25.298z"/>
	<path fill="#FFFFFF" d="M42.151,46.528l-9.54-4.64c-0.971-0.469-1.965-0.436-2.218,0.085l-12.75,42.984l25.81-36.633
		C43.708,47.805,43.125,47.001,42.151,46.528z"/>
</g>
</svg>
