<?xml version="1.0" encoding="utf-8"?>
<!-- Generator: Adobe Illustrator 16.0.0, SVG Export Plug-In . SVG Version: 6.00 Build 0)  -->
<!DOCTYPE svg PUBLIC "-//W3C//DTD SVG 1.1//EN" "http://www.w3.org/Graphics/SVG/1.1/DTD/svg11.dtd">
<svg version="1.1" id="Layer_1" xmlns="http://www.w3.org/2000/svg" xmlns:xlink="http://www.w3.org/1999/xlink" x="0px" y="0px"
	 width="85.04px" height="85.04px" viewBox="0 0 85.04 85.04" enable-background="new 0 0 85.04 85.04" xml:space="preserve">
<g>
	<path fill="#FFFFFF" d="M37.803,23.077h9.436c3.328,0,6.031-2.893,6.031-6.47V7.141c0-3.575-2.703-6.473-6.031-6.473h-9.436
		c-3.334,0-6.033,2.898-6.033,6.473v9.466C31.77,20.184,34.469,23.077,37.803,23.077z"/>
	<path fill="#FFFFFF" d="M64.547,30.169H20.495c-2.237,0-4.051,1.813-4.051,4.052v10.764v11.746v10.531v13.061v4.049h4.051h44.052
		h4.049v-4.049V67.262V34.221C68.596,31.982,66.78,30.169,64.547,30.169z"/>
</g>
</svg>
