<?xml version="1.0" encoding="utf-8"?>
<!-- Generator: Adobe Illustrator 16.0.0, SVG Export Plug-In . SVG Version: 6.00 Build 0)  -->
<!DOCTYPE svg PUBLIC "-//W3C//DTD SVG 1.1//EN" "http://www.w3.org/Graphics/SVG/1.1/DTD/svg11.dtd">
<svg version="1.1" id="Layer_1" xmlns="http://www.w3.org/2000/svg" xmlns:xlink="http://www.w3.org/1999/xlink" x="0px" y="0px"
	 width="226.669px" height="210.038px" viewBox="0 0 226.669 210.038" enable-background="new 0 0 226.669 210.038"
	 xml:space="preserve">
<g>
	<path fill-rule="evenodd" clip-rule="evenodd" fill="#1D1C1C" d="M113.051,210.038c-36.691,0-73.385-0.029-110.078,0.061
		c-2.435,0.005-3.046-0.578-2.967-2.993c0.294-8.972,1.305-17.821,3.93-26.422c4.307-14.113,12.969-24.277,26.521-30.641
		c13.066-6.135,26.696-10.588,40.303-15.194c3.878-1.313,7.745-2.651,11.386-4.553c4.212-2.2,7.84-9.144,7.287-13.838
		c-0.084-0.707-0.557-1.119-0.922-1.633c-10.41-14.602-16.175-31.059-19.383-48.54c-1.688-9.193-2.432-18.453-1.593-27.777
		c1.254-13.929,5.907-25.987,18.987-33.13c5.268-2.875,11.027-4.397,16.957-4.902c8.568-0.738,17.146-0.843,25.591,1.346
		c15.925,4.125,25.854,14.944,27.859,31.374c3.48,28.547-3.47,54.779-18.513,79.035c-0.993,1.599-1.41,3.105-1.12,4.872
		c0.219,1.351,0.512,2.688,0.767,4.028c0.962,5.062,3.855,8.39,8.618,10.461c7.447,3.239,15.237,5.472,22.873,8.157
		c10.398,3.654,20.561,7.78,30.357,12.913c12.496,6.546,19.783,16.899,23.45,30.148c2.226,8.036,3.086,16.269,3.305,24.599
		c0.058,2.199-0.591,2.679-2.712,2.677C186.985,210.018,150.021,210.038,113.051,210.038z"/>
</g>
</svg>
