<?xml version="1.0" encoding="utf-8"?>
<!-- Generator: Adobe Illustrator 16.0.0, SVG Export Plug-In . SVG Version: 6.00 Build 0)  -->
<!DOCTYPE svg PUBLIC "-//W3C//DTD SVG 1.1//EN" "http://www.w3.org/Graphics/SVG/1.1/DTD/svg11.dtd">
<svg version="1.1" id="Layer_1" xmlns="http://www.w3.org/2000/svg" xmlns:xlink="http://www.w3.org/1999/xlink" x="0px" y="0px"
	 width="158.791px" height="182.984px" viewBox="0 0 158.791 182.984" enable-background="new 0 0 158.791 182.984"
	 xml:space="preserve">
<rect x="-0.073" y="66.658" fill="#2D3F50" width="28.237" height="116.327"/>
<rect x="-0.073" y="50.329" fill="#2D3F50" width="28.237" height="12.781"/>
<rect x="32.181" y="28.346" fill="#2D3F50" width="28.237" height="154.638"/>
<rect x="32.181" y="6.635" fill="#2D3F50" width="28.237" height="16.994"/>
<rect x="64.309" y="97.017" fill="#2D3F50" width="28.237" height="85.967"/>
<rect x="64.309" y="84.947" fill="#2D3F50" width="28.237" height="9.443"/>
<rect x="97.286" y="21.307" fill="#2D3F50" width="28.237" height="161.677"/>
<rect x="97.286" y="-1.397" fill="#2D3F50" width="28.237" height="17.764"/>
<rect x="129.54" y="62.759" fill="#2D3F50" width="28.237" height="120.226"/>
<rect x="129.54" y="45.882" fill="#2D3F50" width="28.237" height="13.206"/>
<rect x="262.646" y="156.585" fill="#2D3F50" width="4.834" height="11.607"/>
<rect x="262.646" y="154.956" fill="#2D3F50" width="4.834" height="1.275"/>
<rect x="268.168" y="153.475" fill="#2D3F50" width="4.834" height="14.717"/>
<rect x="268.168" y="151.409" fill="#2D3F50" width="4.834" height="1.617"/>
<rect x="273.668" y="151.367" fill="#2D3F50" width="4.834" height="16.825"/>
<rect x="273.668" y="149.004" fill="#2D3F50" width="4.834" height="1.848"/>
<rect x="279.313" y="148.425" fill="#2D3F50" width="4.834" height="19.767"/>
<rect x="279.313" y="145.649" fill="#2D3F50" width="4.834" height="2.172"/>
<rect x="284.835" y="146.214" fill="#2D3F50" width="4.834" height="21.978"/>
<rect x="284.835" y="143.129" fill="#2D3F50" width="4.834" height="2.414"/>
<rect x="296.896" y="141.489" fill="#2D3F50" width="4.834" height="24.999"/>
<rect x="296.896" y="137.98" fill="#2D3F50" width="4.834" height="2.747"/>
<rect x="302.418" y="153.974" fill="#2D3F50" width="4.834" height="12.514"/>
<rect x="302.418" y="152.217" fill="#2D3F50" width="4.834" height="1.375"/>
<rect x="307.918" y="147.158" fill="#2D3F50" width="4.834" height="19.33"/>
<rect x="307.918" y="144.444" fill="#2D3F50" width="4.834" height="2.124"/>
<rect x="313.563" y="144.567" fill="#2D3F50" width="4.834" height="21.92"/>
<rect x="313.563" y="141.489" fill="#2D3F50" width="4.834" height="2.409"/>
<rect x="319.085" y="154.079" fill="#2D3F50" width="4.834" height="12.409"/>
<rect x="319.085" y="152.336" fill="#2D3F50" width="4.834" height="1.363"/>
</svg>
