<?xml version="1.0" encoding="utf-8"?>
<!-- Generator: Adobe Illustrator 16.0.0, SVG Export Plug-In . SVG Version: 6.00 Build 0)  -->
<!DOCTYPE svg PUBLIC "-//W3C//DTD SVG 1.1//EN" "http://www.w3.org/Graphics/SVG/1.1/DTD/svg11.dtd">
<svg version="1.1" id="Layer_1" xmlns="http://www.w3.org/2000/svg" xmlns:xlink="http://www.w3.org/1999/xlink" x="0px" y="0px"
	 width="158.791px" height="182.984px" viewBox="0 0 158.791 182.984" enable-background="new 0 0 158.791 182.984"
	 xml:space="preserve">
<rect x="-0.073" y="114.422" fill="#2D3F50" width="28.419" height="68.237"/>
<rect x="-0.073" y="104.843" fill="#2D3F50" width="28.419" height="7.498"/>
<rect x="32.388" y="96.14" fill="#2D3F50" width="28.419" height="86.519"/>
<rect x="32.388" y="83.992" fill="#2D3F50" width="28.419" height="9.507"/>
<rect x="64.722" y="83.745" fill="#2D3F50" width="28.418" height="98.915"/>
<rect x="64.722" y="69.857" fill="#2D3F50" width="28.418" height="10.865"/>
<rect x="97.912" y="66.449" fill="#2D3F50" width="28.419" height="116.21"/>
<rect x="97.912" y="50.13" fill="#2D3F50" width="28.419" height="12.768"/>
<rect x="130.372" y="53.452" fill="#2D3F50" width="28.419" height="129.208"/>
<rect x="130.372" y="35.315" fill="#2D3F50" width="28.419" height="14.192"/>
<rect x="296.896" y="141.489" fill="#2D3F50" width="4.834" height="24.999"/>
<rect x="296.896" y="137.98" fill="#2D3F50" width="4.834" height="2.747"/>
<rect x="302.418" y="153.974" fill="#2D3F50" width="4.834" height="12.514"/>
<rect x="302.418" y="152.217" fill="#2D3F50" width="4.834" height="1.375"/>
<rect x="307.918" y="147.158" fill="#2D3F50" width="4.834" height="19.33"/>
<rect x="307.918" y="144.444" fill="#2D3F50" width="4.834" height="2.124"/>
<rect x="313.563" y="144.567" fill="#2D3F50" width="4.834" height="21.92"/>
<rect x="313.563" y="141.489" fill="#2D3F50" width="4.834" height="2.409"/>
<rect x="319.085" y="154.079" fill="#2D3F50" width="4.834" height="12.409"/>
<rect x="319.085" y="152.336" fill="#2D3F50" width="4.834" height="1.363"/>
</svg>
