<?xml version="1.0" encoding="utf-8"?>
<!-- Generator: Adobe Illustrator 16.0.0, SVG Export Plug-In . SVG Version: 6.00 Build 0)  -->
<!DOCTYPE svg PUBLIC "-//W3C//DTD SVG 1.1//EN" "http://www.w3.org/Graphics/SVG/1.1/DTD/svg11.dtd">
<svg version="1.1" id="Layer_1" xmlns="http://www.w3.org/2000/svg" xmlns:xlink="http://www.w3.org/1999/xlink" x="0px" y="0px"
	 width="252.814px" height="251.658px" viewBox="0 0 252.814 251.658" enable-background="new 0 0 252.814 251.658"
	 xml:space="preserve">
<path fill="#2C3E50" d="M193.416,125.443c0.001,0.129,0.01,0.257,0.01,0.386c0,37.841-30.677,68.519-68.519,68.519
	c-37.842,0-68.52-30.678-68.52-68.519c0-37.842,30.677-68.52,68.52-68.52c15.568,0,29.917,5.201,41.422,13.948l25.545-27.938
	c-18.277-14.853-41.581-23.759-66.967-23.759c-58.691,0-106.269,47.578-106.269,106.269c0,58.691,47.578,106.27,106.269,106.27
	s106.269-47.578,106.269-106.27c0-0.029-0.001-0.059-0.001-0.088L193.416,125.443z"/>
<path fill="#E1484A" d="M197.207,40.741L171.664,68.68c16.365,12.442,26.963,32.07,27.086,54.186l37.759,0.297
	C236.481,89.894,221.164,60.208,197.207,40.741z"/>
</svg>
