<?xml version="1.0" encoding="utf-8"?>
<!-- Generator: Adobe Illustrator 16.0.0, SVG Export Plug-In . SVG Version: 6.00 Build 0)  -->
<!DOCTYPE svg PUBLIC "-//W3C//DTD SVG 1.1//EN" "http://www.w3.org/Graphics/SVG/1.1/DTD/svg11.dtd">
<svg version="1.1" id="Layer_1" xmlns="http://www.w3.org/2000/svg" xmlns:xlink="http://www.w3.org/1999/xlink" x="0px" y="0px"
	 width="252.814px" height="251.658px" viewBox="0 0 252.814 251.658" enable-background="new 0 0 252.814 251.658"
	 xml:space="preserve">
<path fill="#AF4547" d="M196.913,94.649c1.189,0,20.62,17.313,20.62,17.313H35.121l23.396-17.313H196.913z"/>
<rect x="35.121" y="111.963" fill="#993E39" width="182.573" height="114.974"/>
<rect x="48.892" y="27.24" fill="#F5F7F6" width="152.669" height="191.625"/>
<rect x="68.457" y="45.264" fill="#CADCDE" width="81.844" height="10.23"/>
<rect x="68.457" y="62.184" fill="#CADCDE" width="61.383" height="5.508"/>
<rect x="68.457" y="75.562" fill="#CADCDE" width="34.627" height="4.722"/>
<rect x="68.457" y="97.99" fill="#CADCDE" width="112.535" height="5.902"/>
<rect x="68.457" y="109.011" fill="#CADCDE" width="112.535" height="5.902"/>
<rect x="68.457" y="120.419" fill="#CADCDE" width="112.535" height="5.901"/>
<rect x="68.457" y="132.03" fill="#CADCDE" width="112.535" height="5.902"/>
<polygon fill="#E1484A" points="35.121,111.963 216.121,224.104 35.121,224.104 "/>
<polygon fill="#C64645" points="217.695,111.963 35.121,224.104 217.695,224.104 "/>
</svg>
