<?xml version="1.0" encoding="utf-8"?>
<!-- Generator: Adobe Illustrator 16.0.0, SVG Export Plug-In . SVG Version: 6.00 Build 0)  -->
<!DOCTYPE svg PUBLIC "-//W3C//DTD SVG 1.1//EN" "http://www.w3.org/Graphics/SVG/1.1/DTD/svg11.dtd">
<svg version="1.1" id="Layer_1" xmlns="http://www.w3.org/2000/svg" xmlns:xlink="http://www.w3.org/1999/xlink" x="0px" y="0px"
	 width="120.907px" height="251.658px" viewBox="0 0 120.907 251.658" enable-background="new 0 0 120.907 251.658"
	 xml:space="preserve">
<g>
	<circle fill="#DF4949" cx="60.41" cy="37.178" r="23.015"/>
	<path fill="#DF4949" d="M114.659,125.334c-2.271-4.084-28.021-65.28-42.303-63.703c-6.38,0.712-9.173,1.196-10.483,1.489
		c-0.929,0.025-1.845,0.025-2.716,0c-1.304-0.293-4.09-0.776-10.478-1.489C34.392,60.054,8.641,121.25,6.377,125.334
		c-2.271,4.084-4.001,10.967,4.612,10.731c8.613-0.229,29.179-44.714,29.179-44.714l-1.546,89.81c0,0-0.56,8.995-0.579,20.165l0,0
		c0,0.013,0,0.051,0,0.063c-0.006,4.956,0.095,10.306,0.395,15.516c0.433,11.476,1.316,25.35,3.015,27.004
		c2.907,2.824,10.56,1.934,12.277,0c0.922-1.03,2.067-13.148,2.939-24.173c0.254-2.271,0.471-4.58,0.649-6.915
		c0.299-3.874,0.509-7.754,0.662-11.47v-0.025l0,0c0.477-12.277,0.229-22.437,0.229-22.437c0.153-18.887,1.495-24.548,2.303-26.246
		c0.814,1.711,2.156,7.354,2.315,26.246c0,0-0.248,10.172,0.223,22.437l0,0v0.025c0.146,3.702,0.356,7.596,0.655,11.47
		c0.184,2.322,0.394,4.644,0.649,6.915c0.878,11.024,2.029,23.143,2.945,24.173c1.711,1.934,9.376,2.824,12.277,0
		c1.705-1.654,2.583-15.528,3.015-27.004c0.305-5.21,0.407-10.56,0.401-15.516c0-0.013,0-0.051,0-0.063l0,0
		c-0.019-11.17-0.579-20.165-0.579-20.165l-1.552-89.81c0,0,20.566,44.491,29.186,44.721
		C118.661,136.301,116.93,129.418,114.659,125.334z"/>
</g>
</svg>
