<?xml version="1.0" encoding="utf-8"?>
<!-- Generator: Adobe Illustrator 16.0.0, SVG Export Plug-In . SVG Version: 6.00 Build 0)  -->
<!DOCTYPE svg PUBLIC "-//W3C//DTD SVG 1.1//EN" "http://www.w3.org/Graphics/SVG/1.1/DTD/svg11.dtd">
<svg version="1.1" id="Layer_1" xmlns="http://www.w3.org/2000/svg" xmlns:xlink="http://www.w3.org/1999/xlink" x="0px" y="0px"
	 width="252.814px" height="251.658px" viewBox="0 0 252.814 251.658" enable-background="new 0 0 252.814 251.658"
	 xml:space="preserve">
<g>
	<circle fill="#FFFFFF" cx="148.622" cy="10.3" r="3.533"/>
	<path fill="#FFFFFF" d="M156.95,23.834c-0.348-0.627-4.301-10.021-6.494-9.779c-0.979,0.109-1.408,0.184-1.608,0.229
		c-0.144,0.004-0.282,0.004-0.417,0c-0.199-0.045-0.628-0.119-1.608-0.229c-2.193-0.242-6.146,9.152-6.494,9.779
		s-0.614,1.684,0.708,1.648c1.324-0.035,4.48-6.865,4.48-6.865l-0.238,13.787c0,0-0.086,1.381-0.089,3.096l0,0
		c0,0.002,0,0.008,0,0.01c-0.001,0.76,0.014,1.582,0.06,2.381c0.067,1.762,0.203,3.891,0.464,4.145c0.446,0.434,1.621,0.297,1.885,0
		c0.142-0.158,0.317-2.018,0.451-3.711c0.039-0.348,0.072-0.703,0.101-1.061c0.046-0.594,0.078-1.191,0.1-1.76V35.5l0,0
		c0.073-1.885,0.035-3.445,0.035-3.445c0.024-2.9,0.23-3.768,0.355-4.029c0.124,0.262,0.33,1.129,0.354,4.029
		c0,0-0.038,1.561,0.035,3.445l0,0v0.004c0.022,0.568,0.054,1.166,0.101,1.76c0.027,0.357,0.061,0.713,0.1,1.061
		c0.134,1.693,0.311,3.553,0.451,3.711c0.264,0.297,1.439,0.434,1.885,0c0.262-0.254,0.396-2.383,0.463-4.145
		c0.047-0.799,0.063-1.621,0.061-2.381c0-0.002,0-0.008,0-0.01l0,0c-0.002-1.715-0.089-3.096-0.089-3.096l-0.238-13.787
		c0,0,3.157,6.83,4.479,6.865C157.566,25.517,157.299,24.461,156.95,23.834z"/>
</g>
<g>
	<circle fill="#FFFFFF" cx="35.788" cy="51.301" r="3.534"/>
	<path fill="#FFFFFF" d="M44.116,64.833c-0.348-0.627-4.301-10.021-6.494-9.778c-0.979,0.108-1.408,0.183-1.609,0.229
		c-0.143,0.003-0.283,0.003-0.417,0c-0.2-0.046-0.628-0.12-1.609-0.229c-2.193-0.243-6.146,9.151-6.494,9.778
		s-0.614,1.684,0.708,1.648c1.323-0.035,4.48-6.864,4.48-6.864l-0.238,13.786c0,0-0.086,1.381-0.089,3.096c0,0.001,0,0.001,0,0.001
		c0,0.001,0,0.007,0,0.009c-0.001,0.76,0.014,1.583,0.06,2.382c0.067,1.761,0.202,3.89,0.463,4.144c0.446,0.434,1.621,0.297,1.885,0
		c0.141-0.158,0.317-2.017,0.451-3.711c0.039-0.348,0.072-0.703,0.1-1.061c0.046-0.594,0.078-1.191,0.101-1.76V76.5l0,0
		c0.073-1.886,0.035-3.446,0.035-3.446c0.024-2.899,0.23-3.768,0.354-4.029c0.125,0.262,0.331,1.13,0.355,4.029
		c0,0-0.038,1.561,0.035,3.446l0,0v0.003c0.022,0.568,0.054,1.166,0.1,1.76c0.028,0.357,0.061,0.713,0.1,1.061
		c0.134,1.694,0.311,3.553,0.452,3.711c0.263,0.297,1.439,0.434,1.885,0c0.261-0.254,0.396-2.383,0.463-4.144
		c0.046-0.799,0.062-1.622,0.061-2.382c0-0.002,0-0.008,0-0.009c0,0,0,0,0-0.001c-0.003-1.715-0.089-3.096-0.089-3.096
		l-0.238-13.786c0,0,3.157,6.829,4.48,6.864C44.731,66.517,44.465,65.46,44.116,64.833z"/>
</g>
<g>
	<circle fill="#FFFFFF" cx="103.455" cy="51.301" r="3.534"/>
	<path fill="#FFFFFF" d="M111.784,64.833c-0.348-0.627-4.301-10.021-6.494-9.778c-0.979,0.108-1.408,0.183-1.609,0.229
		c-0.143,0.003-0.283,0.003-0.417,0c-0.2-0.046-0.628-0.12-1.609-0.229c-2.193-0.243-6.146,9.151-6.494,9.778
		s-0.614,1.684,0.708,1.648c1.323-0.035,4.48-6.864,4.48-6.864l-0.238,13.786c0,0-0.086,1.381-0.089,3.096c0,0.001,0,0.001,0,0.001
		c0,0.001,0,0.007,0,0.009c-0.001,0.76,0.014,1.583,0.06,2.382c0.067,1.761,0.202,3.89,0.463,4.144c0.446,0.434,1.621,0.297,1.885,0
		c0.141-0.158,0.317-2.017,0.451-3.711c0.039-0.348,0.072-0.703,0.1-1.061c0.046-0.594,0.078-1.191,0.101-1.76V76.5l0,0
		c0.073-1.886,0.035-3.446,0.035-3.446c0.024-2.899,0.23-3.768,0.354-4.029c0.125,0.262,0.331,1.13,0.355,4.029
		c0,0-0.038,1.561,0.035,3.446l0,0v0.003c0.022,0.568,0.054,1.166,0.1,1.76c0.028,0.357,0.061,0.713,0.1,1.061
		c0.134,1.694,0.311,3.553,0.452,3.711c0.263,0.297,1.439,0.434,1.885,0c0.261-0.254,0.396-2.383,0.463-4.144
		c0.046-0.799,0.062-1.622,0.061-2.382c0-0.002,0-0.008,0-0.009c0,0,0,0,0-0.001c-0.003-1.715-0.089-3.096-0.089-3.096
		l-0.238-13.786c0,0,3.157,6.829,4.48,6.864C112.398,66.517,112.132,65.46,111.784,64.833z"/>
</g>
<g>
	<circle fill="#FFFFFF" cx="148.455" cy="51.3" r="3.533"/>
	<path fill="#FFFFFF" d="M156.783,64.833c-0.348-0.627-4.301-10.021-6.494-9.779c-0.979,0.109-1.408,0.184-1.608,0.229
		c-0.144,0.004-0.282,0.004-0.417,0c-0.199-0.045-0.628-0.119-1.608-0.229c-2.193-0.242-6.146,9.152-6.494,9.779
		s-0.614,1.684,0.708,1.648c1.324-0.035,4.48-6.865,4.48-6.865l-0.238,13.787c0,0-0.086,1.381-0.089,3.096l0,0
		c0,0.002,0,0.008,0,0.01c-0.001,0.76,0.014,1.582,0.06,2.381c0.067,1.762,0.203,3.891,0.464,4.145c0.446,0.434,1.621,0.297,1.885,0
		c0.142-0.158,0.317-2.018,0.451-3.711c0.039-0.348,0.072-0.703,0.101-1.061c0.046-0.594,0.078-1.191,0.1-1.76v-0.004l0,0
		c0.073-1.885,0.035-3.445,0.035-3.445c0.024-2.9,0.23-3.768,0.355-4.029c0.124,0.262,0.33,1.129,0.354,4.029
		c0,0-0.038,1.561,0.035,3.445l0,0v0.004c0.022,0.568,0.054,1.166,0.101,1.76c0.027,0.357,0.061,0.713,0.1,1.061
		c0.134,1.693,0.311,3.553,0.451,3.711c0.264,0.297,1.439,0.434,1.885,0c0.262-0.254,0.396-2.383,0.463-4.145
		c0.047-0.799,0.063-1.621,0.061-2.381c0-0.002,0-0.008,0-0.01l0,0c-0.002-1.715-0.089-3.096-0.089-3.096l-0.238-13.787
		c0,0,3.157,6.83,4.479,6.865C157.399,66.517,157.132,65.46,156.783,64.833z"/>
</g>
<g>
	<circle fill="#FFFFFF" cx="13.538" cy="91.714" r="3.533"/>
	<path fill="#FFFFFF" d="M21.867,105.248c-0.348-0.627-4.301-10.022-6.494-9.779c-0.979,0.109-1.408,0.184-1.609,0.229
		c-0.143,0.003-0.283,0.003-0.417,0c-0.2-0.045-0.628-0.119-1.609-0.229c-2.193-0.243-6.146,9.152-6.494,9.779
		c-0.348,0.626-0.614,1.684,0.708,1.648c1.323-0.035,4.48-6.865,4.48-6.865l-0.238,13.787c0,0-0.086,1.381-0.089,3.096l0,0
		c0,0.002,0,0.008,0,0.01c-0.001,0.76,0.014,1.582,0.06,2.381c0.067,1.762,0.202,3.891,0.463,4.145c0.446,0.434,1.621,0.297,1.885,0
		c0.141-0.158,0.317-2.018,0.451-3.711c0.039-0.348,0.072-0.703,0.1-1.061c0.046-0.594,0.078-1.191,0.101-1.76v-0.004l0,0
		c0.073-1.885,0.035-3.445,0.035-3.445c0.024-2.9,0.23-3.769,0.354-4.03c0.125,0.262,0.331,1.13,0.355,4.03
		c0,0-0.038,1.561,0.035,3.445l0,0v0.004c0.022,0.568,0.054,1.166,0.1,1.76c0.028,0.357,0.061,0.713,0.1,1.061
		c0.134,1.693,0.311,3.553,0.452,3.711c0.263,0.297,1.439,0.434,1.885,0c0.261-0.254,0.396-2.383,0.463-4.145
		c0.046-0.799,0.062-1.621,0.061-2.381c0-0.002,0-0.008,0-0.01l0,0c-0.003-1.715-0.089-3.096-0.089-3.096l-0.238-13.787
		c0,0,3.157,6.83,4.48,6.865C22.481,106.931,22.215,105.874,21.867,105.248z"/>
</g>
<g>
	<circle fill="#FFFFFF" cx="35.871" cy="91.714" r="3.533"/>
	<path fill="#FFFFFF" d="M44.2,105.248c-0.348-0.627-4.301-10.021-6.494-9.779c-0.979,0.109-1.408,0.184-1.609,0.229
		c-0.143,0.004-0.283,0.004-0.417,0c-0.2-0.045-0.628-0.119-1.609-0.229c-2.193-0.242-6.146,9.152-6.494,9.779
		s-0.614,1.684,0.708,1.648c1.323-0.035,4.48-6.865,4.48-6.865l-0.238,13.787c0,0-0.086,1.381-0.089,3.096l0,0
		c0,0.002,0,0.008,0,0.01c-0.001,0.76,0.014,1.582,0.06,2.381c0.067,1.762,0.202,3.891,0.463,4.145c0.446,0.434,1.621,0.297,1.885,0
		c0.141-0.158,0.317-2.018,0.451-3.711c0.039-0.348,0.072-0.703,0.1-1.061c0.046-0.594,0.078-1.191,0.101-1.76v-0.004l0,0
		c0.073-1.885,0.035-3.445,0.035-3.445c0.024-2.9,0.23-3.768,0.354-4.029c0.125,0.262,0.331,1.129,0.355,4.029
		c0,0-0.038,1.561,0.035,3.445l0,0v0.004c0.022,0.568,0.054,1.166,0.1,1.76c0.028,0.357,0.061,0.713,0.1,1.061
		c0.134,1.693,0.311,3.553,0.452,3.711c0.263,0.297,1.439,0.434,1.885,0c0.261-0.254,0.396-2.383,0.463-4.145
		c0.046-0.799,0.062-1.621,0.061-2.381c0-0.002,0-0.008,0-0.01l0,0c-0.003-1.715-0.089-3.096-0.089-3.096l-0.238-13.787
		c0,0,3.157,6.83,4.48,6.865C44.814,106.931,44.548,105.875,44.2,105.248z"/>
</g>
<g>
	<circle fill="#FFFFFF" cx="103.539" cy="91.714" r="3.533"/>
	<path fill="#FFFFFF" d="M111.867,105.248c-0.348-0.627-4.301-10.021-6.494-9.779c-0.979,0.109-1.408,0.184-1.609,0.229
		c-0.143,0.004-0.283,0.004-0.417,0c-0.2-0.045-0.628-0.119-1.609-0.229c-2.193-0.242-6.146,9.152-6.494,9.779
		s-0.614,1.684,0.708,1.648c1.323-0.035,4.48-6.865,4.48-6.865l-0.238,13.787c0,0-0.086,1.381-0.089,3.096l0,0
		c0,0.002,0,0.008,0,0.01c-0.001,0.76,0.014,1.582,0.06,2.381c0.067,1.762,0.202,3.891,0.463,4.145c0.446,0.434,1.621,0.297,1.885,0
		c0.141-0.158,0.317-2.018,0.451-3.711c0.039-0.348,0.072-0.703,0.1-1.061c0.046-0.594,0.078-1.191,0.101-1.76v-0.004l0,0
		c0.073-1.885,0.035-3.445,0.035-3.445c0.024-2.9,0.23-3.768,0.354-4.029c0.125,0.262,0.331,1.129,0.355,4.029
		c0,0-0.038,1.561,0.035,3.445l0,0v0.004c0.022,0.568,0.054,1.166,0.1,1.76c0.028,0.357,0.061,0.713,0.1,1.061
		c0.134,1.693,0.311,3.553,0.452,3.711c0.263,0.297,1.439,0.434,1.885,0c0.261-0.254,0.396-2.383,0.463-4.145
		c0.046-0.799,0.062-1.621,0.061-2.381c0-0.002,0-0.008,0-0.01l0,0c-0.003-1.715-0.089-3.096-0.089-3.096l-0.238-13.787
		c0,0,3.157,6.83,4.48,6.865C112.482,106.931,112.216,105.875,111.867,105.248z"/>
</g>
<g>
	<circle fill="#FFFFFF" cx="148.538" cy="91.714" r="3.534"/>
	<path fill="#FFFFFF" d="M156.866,105.248c-0.348-0.627-4.301-10.021-6.494-9.779c-0.979,0.109-1.408,0.184-1.607,0.229
		c-0.145,0.004-0.283,0.004-0.418,0c-0.199-0.045-0.627-0.119-1.607-0.229c-2.193-0.242-6.146,9.152-6.494,9.779
		c-0.35,0.627-0.615,1.684,0.707,1.648c1.324-0.035,4.48-6.865,4.48-6.865l-0.238,13.787c0,0-0.086,1.381-0.088,3.096l0,0
		c0,0.002,0,0.008,0,0.01c-0.002,0.76,0.014,1.582,0.059,2.381c0.068,1.762,0.203,3.891,0.465,4.145
		c0.445,0.434,1.621,0.297,1.885,0c0.141-0.158,0.316-2.018,0.451-3.711c0.039-0.348,0.072-0.703,0.1-1.061
		c0.047-0.594,0.078-1.191,0.1-1.76v-0.004l0,0c0.074-1.885,0.035-3.445,0.035-3.445c0.025-2.9,0.23-3.768,0.355-4.029
		c0.125,0.262,0.33,1.129,0.355,4.029c0,0-0.039,1.561,0.035,3.445l0,0v0.004c0.021,0.568,0.053,1.166,0.1,1.76
		c0.027,0.357,0.061,0.713,0.1,1.061c0.135,1.693,0.311,3.553,0.451,3.711c0.264,0.297,1.439,0.434,1.885,0
		c0.262-0.254,0.396-2.383,0.463-4.145c0.047-0.799,0.063-1.621,0.061-2.381c0-0.002,0-0.008,0-0.01l0,0
		c-0.002-1.715-0.088-3.096-0.088-3.096l-0.238-13.787c0,0,3.156,6.83,4.479,6.865C157.482,106.931,157.216,105.875,156.866,105.248
		z"/>
</g>
<g>
	<circle fill="#FFFFFF" cx="170.872" cy="91.714" r="3.534"/>
	<path fill="#FFFFFF" d="M179.2,105.248c-0.348-0.627-4.301-10.021-6.494-9.779c-0.98,0.109-1.408,0.184-1.609,0.229
		c-0.143,0.004-0.283,0.004-0.416,0c-0.201-0.045-0.629-0.119-1.609-0.229c-2.193-0.242-6.146,9.152-6.494,9.779
		s-0.613,1.684,0.709,1.648s4.48-6.865,4.48-6.865l-0.238,13.787c0,0-0.086,1.381-0.09,3.096l0,0c0,0.002,0,0.008,0,0.01
		c-0.002,0.76,0.014,1.582,0.061,2.381c0.066,1.762,0.201,3.891,0.463,4.145c0.445,0.434,1.621,0.297,1.885,0
		c0.141-0.158,0.318-2.018,0.451-3.711c0.039-0.348,0.072-0.703,0.1-1.061c0.047-0.594,0.078-1.191,0.102-1.76v-0.004l0,0
		c0.072-1.885,0.035-3.445,0.035-3.445c0.023-2.9,0.23-3.768,0.354-4.029c0.125,0.262,0.332,1.129,0.355,4.029
		c0,0-0.037,1.561,0.035,3.445l0,0v0.004c0.021,0.568,0.055,1.166,0.1,1.76c0.029,0.357,0.063,0.713,0.102,1.061
		c0.133,1.693,0.311,3.553,0.451,3.711c0.264,0.297,1.439,0.434,1.885,0c0.262-0.254,0.396-2.383,0.463-4.145
		c0.047-0.799,0.061-1.621,0.061-2.381c0-0.002,0-0.008,0-0.01l0,0c-0.004-1.715-0.09-3.096-0.09-3.096l-0.238-13.787
		c0,0,3.158,6.83,4.48,6.865S179.548,105.875,179.2,105.248z"/>
</g>
<g>
	<circle fill="#FFFFFF" cx="13.371" cy="132.715" r="3.533"/>
	<path fill="#FFFFFF" d="M21.7,146.248c-0.348-0.627-4.301-10.021-6.494-9.779c-0.979,0.109-1.408,0.184-1.609,0.229
		c-0.143,0.004-0.283,0.004-0.417,0c-0.2-0.045-0.628-0.119-1.609-0.229c-2.193-0.242-6.146,9.152-6.494,9.779
		s-0.614,1.684,0.708,1.648c1.323-0.035,4.48-6.865,4.48-6.865l-0.238,13.787c0,0-0.086,1.381-0.089,3.096l0,0
		c0,0.002,0,0.008,0,0.01c-0.001,0.76,0.014,1.582,0.06,2.381c0.067,1.762,0.202,3.891,0.463,4.145c0.446,0.434,1.621,0.297,1.885,0
		c0.141-0.158,0.317-2.018,0.451-3.711c0.039-0.348,0.072-0.703,0.1-1.061c0.046-0.594,0.078-1.191,0.101-1.76v-0.004l0,0
		c0.073-1.885,0.035-3.445,0.035-3.445c0.024-2.9,0.23-3.768,0.354-4.029c0.125,0.262,0.331,1.129,0.355,4.029
		c0,0-0.038,1.561,0.035,3.445l0,0v0.004c0.022,0.568,0.054,1.166,0.1,1.76c0.028,0.357,0.061,0.713,0.1,1.061
		c0.134,1.693,0.311,3.553,0.452,3.711c0.263,0.297,1.439,0.434,1.885,0c0.261-0.254,0.396-2.383,0.463-4.145
		c0.046-0.799,0.062-1.621,0.061-2.381c0-0.002,0-0.008,0-0.01l0,0c-0.003-1.715-0.089-3.096-0.089-3.096l-0.238-13.787
		c0,0,3.157,6.83,4.48,6.865C22.314,147.931,22.048,146.875,21.7,146.248z"/>
</g>
<g>
	<circle fill="#FFFFFF" cx="35.704" cy="132.715" r="3.533"/>
	<path fill="#FFFFFF" d="M44.033,146.248c-0.348-0.627-4.301-10.021-6.494-9.779c-0.979,0.109-1.408,0.184-1.609,0.229
		c-0.143,0.004-0.283,0.004-0.417,0c-0.2-0.045-0.628-0.119-1.609-0.229c-2.193-0.242-6.146,9.152-6.494,9.779
		s-0.614,1.684,0.708,1.648c1.323-0.035,4.48-6.865,4.48-6.865l-0.238,13.787c0,0-0.086,1.381-0.089,3.096l0,0
		c0,0.002,0,0.008,0,0.01c-0.001,0.76,0.014,1.582,0.06,2.381c0.067,1.762,0.202,3.891,0.463,4.145c0.446,0.434,1.621,0.297,1.885,0
		c0.141-0.158,0.317-2.018,0.451-3.711c0.039-0.348,0.072-0.703,0.1-1.061c0.046-0.594,0.078-1.191,0.101-1.76v-0.004l0,0
		c0.073-1.885,0.035-3.445,0.035-3.445c0.024-2.9,0.23-3.768,0.354-4.029c0.125,0.262,0.331,1.129,0.355,4.029
		c0,0-0.038,1.561,0.035,3.445l0,0v0.004c0.022,0.568,0.054,1.166,0.1,1.76c0.028,0.357,0.061,0.713,0.1,1.061
		c0.134,1.693,0.311,3.553,0.452,3.711c0.263,0.297,1.439,0.434,1.885,0c0.261-0.254,0.396-2.383,0.463-4.145
		c0.046-0.799,0.062-1.621,0.061-2.381c0-0.002,0-0.008,0-0.01l0,0c-0.003-1.715-0.089-3.096-0.089-3.096l-0.238-13.787
		c0,0,3.157,6.83,4.48,6.865C44.647,147.931,44.381,146.875,44.033,146.248z"/>
</g>
<g>
	<circle fill="#FFFFFF" cx="80.704" cy="132.714" r="3.534"/>
	<path fill="#FFFFFF" d="M89.033,146.248c-0.348-0.627-4.301-10.021-6.494-9.779c-0.979,0.109-1.408,0.184-1.609,0.229
		c-0.143,0.004-0.283,0.004-0.417,0c-0.2-0.045-0.628-0.119-1.609-0.229c-2.193-0.242-6.146,9.152-6.494,9.779
		s-0.614,1.684,0.708,1.648c1.323-0.035,4.48-6.865,4.48-6.865l-0.238,13.787c0,0-0.086,1.381-0.089,3.096l0,0
		c0,0.002,0,0.008,0,0.01c-0.001,0.76,0.014,1.582,0.06,2.381c0.067,1.762,0.202,3.891,0.463,4.145c0.446,0.434,1.621,0.297,1.885,0
		c0.141-0.158,0.317-2.018,0.451-3.711c0.039-0.348,0.072-0.703,0.1-1.061c0.046-0.594,0.078-1.191,0.101-1.76v-0.004l0,0
		c0.073-1.885,0.035-3.445,0.035-3.445c0.024-2.9,0.23-3.768,0.354-4.029c0.125,0.262,0.331,1.129,0.355,4.029
		c0,0-0.038,1.561,0.035,3.445l0,0v0.004c0.022,0.568,0.054,1.166,0.1,1.76c0.028,0.357,0.061,0.713,0.1,1.061
		c0.134,1.693,0.311,3.553,0.452,3.711c0.263,0.297,1.439,0.434,1.885,0c0.261-0.254,0.396-2.383,0.463-4.145
		c0.046-0.799,0.062-1.621,0.061-2.381c0-0.002,0-0.008,0-0.01l0,0c-0.003-1.715-0.089-3.096-0.089-3.096l-0.238-13.787
		c0,0,3.157,6.83,4.48,6.865C89.647,147.931,89.381,146.875,89.033,146.248z"/>
</g>
<g>
	<circle fill="#FFFFFF" cx="103.372" cy="132.715" r="3.533"/>
	<path fill="#FFFFFF" d="M111.7,146.248c-0.348-0.627-4.301-10.021-6.494-9.779c-0.979,0.109-1.408,0.184-1.609,0.229
		c-0.143,0.004-0.283,0.004-0.417,0c-0.2-0.045-0.628-0.119-1.609-0.229c-2.193-0.242-6.146,9.152-6.494,9.779
		s-0.614,1.684,0.708,1.648c1.323-0.035,4.48-6.865,4.48-6.865l-0.238,13.787c0,0-0.086,1.381-0.089,3.096l0,0
		c0,0.002,0,0.008,0,0.01c-0.001,0.76,0.014,1.582,0.06,2.381c0.067,1.762,0.202,3.891,0.463,4.145c0.446,0.434,1.621,0.297,1.885,0
		c0.141-0.158,0.317-2.018,0.451-3.711c0.039-0.348,0.072-0.703,0.1-1.061c0.046-0.594,0.078-1.191,0.101-1.76v-0.004l0,0
		c0.073-1.885,0.035-3.445,0.035-3.445c0.024-2.9,0.23-3.768,0.354-4.029c0.125,0.262,0.331,1.129,0.355,4.029
		c0,0-0.038,1.561,0.035,3.445l0,0v0.004c0.022,0.568,0.054,1.166,0.1,1.76c0.028,0.357,0.061,0.713,0.1,1.061
		c0.134,1.693,0.311,3.553,0.452,3.711c0.263,0.297,1.439,0.434,1.885,0c0.261-0.254,0.396-2.383,0.463-4.145
		c0.046-0.799,0.062-1.621,0.061-2.381c0-0.002,0-0.008,0-0.01l0,0c-0.003-1.715-0.089-3.096-0.089-3.096l-0.238-13.787
		c0,0,3.157,6.83,4.48,6.865C112.315,147.931,112.049,146.875,111.7,146.248z"/>
</g>
<g>
	<circle fill="#FFFFFF" cx="125.704" cy="132.715" r="3.533"/>
	<path fill="#FFFFFF" d="M134.034,146.248c-0.35-0.627-4.303-10.021-6.494-9.779c-0.98,0.109-1.409,0.184-1.609,0.229
		c-0.144,0.004-0.283,0.004-0.417,0c-0.2-0.045-0.628-0.119-1.609-0.229c-2.193-0.242-6.146,9.152-6.494,9.779
		s-0.614,1.684,0.708,1.648c1.323-0.035,4.48-6.865,4.48-6.865l-0.238,13.787c0,0-0.086,1.381-0.089,3.096l0,0
		c0,0.002,0,0.008,0,0.01c-0.001,0.76,0.014,1.582,0.06,2.381c0.067,1.762,0.202,3.891,0.463,4.145c0.446,0.434,1.621,0.297,1.885,0
		c0.141-0.158,0.317-2.018,0.451-3.711c0.039-0.348,0.072-0.703,0.1-1.061c0.046-0.594,0.078-1.191,0.101-1.76v-0.004l0,0
		c0.073-1.885,0.035-3.445,0.035-3.445c0.024-2.9,0.23-3.768,0.354-4.029c0.125,0.262,0.331,1.129,0.355,4.029
		c0,0-0.039,1.561,0.035,3.445l0,0v0.004c0.021,0.568,0.054,1.166,0.1,1.76c0.027,0.357,0.061,0.713,0.1,1.061
		c0.135,1.693,0.311,3.553,0.453,3.711c0.262,0.297,1.438,0.434,1.885,0c0.26-0.254,0.395-2.383,0.463-4.145
		c0.045-0.799,0.061-1.621,0.061-2.381c0-0.002,0-0.008,0-0.01l0,0c-0.004-1.715-0.09-3.096-0.09-3.096l-0.238-13.787
		c0,0,3.156,6.83,4.48,6.865C134.648,147.931,134.382,146.875,134.034,146.248z"/>
</g>
<g>
	<circle fill="#FFFFFF" cx="148.372" cy="132.714" r="3.534"/>
	<path fill="#FFFFFF" d="M156.7,146.248c-0.348-0.627-4.301-10.021-6.494-9.779c-0.979,0.109-1.408,0.184-1.609,0.229
		c-0.143,0.004-0.281,0.004-0.416,0c-0.199-0.045-0.629-0.119-1.609-0.229c-2.193-0.242-6.145,9.152-6.494,9.779
		c-0.348,0.627-0.613,1.684,0.709,1.648c1.324-0.035,4.48-6.865,4.48-6.865l-0.238,13.787c0,0-0.086,1.381-0.09,3.096l0,0
		c0,0.002,0,0.008,0,0.01c0,0.76,0.014,1.582,0.061,2.381c0.066,1.762,0.203,3.891,0.463,4.145c0.447,0.434,1.621,0.297,1.885,0
		c0.143-0.158,0.318-2.018,0.451-3.711c0.039-0.348,0.072-0.703,0.102-1.061c0.045-0.594,0.078-1.191,0.1-1.76v-0.004l0,0
		c0.072-1.885,0.035-3.445,0.035-3.445c0.023-2.9,0.23-3.768,0.355-4.029c0.123,0.262,0.33,1.129,0.354,4.029
		c0,0-0.037,1.561,0.035,3.445l0,0v0.004c0.023,0.568,0.055,1.166,0.102,1.76c0.027,0.357,0.061,0.713,0.1,1.061
		c0.133,1.693,0.311,3.553,0.451,3.711c0.264,0.297,1.439,0.434,1.885,0c0.262-0.254,0.396-2.383,0.463-4.145
		c0.047-0.799,0.063-1.621,0.061-2.381c0-0.002,0-0.008,0-0.01l0,0c-0.002-1.715-0.09-3.096-0.09-3.096l-0.238-13.787
		c0,0,3.158,6.83,4.48,6.865C157.316,147.931,157.048,146.875,156.7,146.248z"/>
</g>
<g>
	<circle fill="#FFFFFF" cx="170.704" cy="132.714" r="3.534"/>
	<path fill="#FFFFFF" d="M179.034,146.248c-0.35-0.627-4.303-10.021-6.494-9.779c-0.98,0.109-1.408,0.184-1.609,0.229
		c-0.143,0.004-0.283,0.004-0.416,0c-0.201-0.045-0.629-0.119-1.609-0.229c-2.193-0.242-6.146,9.152-6.494,9.779
		s-0.615,1.684,0.709,1.648c1.322-0.035,4.479-6.865,4.479-6.865l-0.236,13.787c0,0-0.088,1.381-0.09,3.096l0,0
		c0,0.002,0,0.008,0,0.01c-0.002,0.76,0.014,1.582,0.061,2.381c0.066,1.762,0.201,3.891,0.463,4.145
		c0.445,0.434,1.621,0.297,1.885,0c0.141-0.158,0.316-2.018,0.451-3.711c0.039-0.348,0.072-0.703,0.1-1.061
		c0.047-0.594,0.078-1.191,0.102-1.76v-0.004l0,0c0.072-1.885,0.035-3.445,0.035-3.445c0.023-2.9,0.23-3.768,0.354-4.029
		c0.125,0.262,0.332,1.129,0.355,4.029c0,0-0.039,1.561,0.035,3.445l0,0v0.004c0.021,0.568,0.055,1.166,0.1,1.76
		c0.027,0.357,0.061,0.713,0.1,1.061c0.135,1.693,0.311,3.553,0.453,3.711c0.262,0.297,1.438,0.434,1.885,0
		c0.26-0.254,0.395-2.383,0.463-4.145c0.045-0.799,0.061-1.621,0.061-2.381c0-0.002,0-0.008,0-0.01l0,0
		c-0.004-1.715-0.09-3.096-0.09-3.096l-0.238-13.787c0,0,3.156,6.83,4.48,6.865C179.648,147.931,179.382,146.875,179.034,146.248z"
		/>
</g>
<g>
	<circle fill="#FFFFFF" cx="238.372" cy="132.714" r="3.534"/>
	<path fill="#FFFFFF" d="M246.7,146.248c-0.348-0.627-4.301-10.021-6.494-9.779c-0.98,0.109-1.408,0.184-1.609,0.229
		c-0.143,0.004-0.283,0.004-0.416,0c-0.201-0.045-0.629-0.119-1.609-0.229c-2.193-0.242-6.146,9.152-6.494,9.779
		s-0.613,1.684,0.709,1.648s4.48-6.865,4.48-6.865l-0.238,13.787c0,0-0.086,1.381-0.09,3.096l0,0c0,0.002,0,0.008,0,0.01
		c-0.002,0.76,0.014,1.582,0.061,2.381c0.066,1.762,0.201,3.891,0.463,4.145c0.445,0.434,1.621,0.297,1.885,0
		c0.141-0.158,0.318-2.018,0.451-3.711c0.039-0.348,0.072-0.703,0.1-1.061c0.047-0.594,0.078-1.191,0.102-1.76v-0.004l0,0
		c0.072-1.885,0.035-3.445,0.035-3.445c0.023-2.9,0.23-3.768,0.354-4.029c0.125,0.262,0.332,1.129,0.355,4.029
		c0,0-0.037,1.561,0.035,3.445l0,0v0.004c0.021,0.568,0.055,1.166,0.1,1.76c0.029,0.357,0.063,0.713,0.102,1.061
		c0.133,1.693,0.311,3.553,0.451,3.711c0.264,0.297,1.439,0.434,1.885,0c0.262-0.254,0.396-2.383,0.463-4.145
		c0.047-0.799,0.061-1.621,0.061-2.381c0-0.002,0-0.008,0-0.01l0,0c-0.004-1.715-0.09-3.096-0.09-3.096l-0.238-13.787
		c0,0,3.158,6.83,4.48,6.865S247.048,146.875,246.7,146.248z"/>
</g>
<g>
	<circle fill="#FFFFFF" cx="13.271" cy="172.696" r="3.534"/>
	<path fill="#FFFFFF" d="M21.599,186.229c-0.348-0.627-4.301-10.022-6.494-9.779c-0.979,0.109-1.408,0.184-1.609,0.229
		c-0.143,0.003-0.283,0.003-0.417,0c-0.2-0.045-0.628-0.119-1.609-0.229c-2.193-0.243-6.146,9.152-6.494,9.779
		c-0.348,0.626-0.614,1.684,0.708,1.648c1.323-0.035,4.48-6.865,4.48-6.865L9.927,194.8c0,0-0.086,1.381-0.089,3.096l0,0
		c0,0.002,0,0.008,0,0.01c-0.001,0.76,0.014,1.582,0.06,2.381c0.067,1.762,0.202,3.891,0.463,4.145c0.446,0.434,1.621,0.297,1.885,0
		c0.141-0.158,0.317-2.018,0.451-3.711c0.039-0.348,0.072-0.703,0.1-1.061c0.046-0.594,0.078-1.191,0.101-1.76v-0.004l0,0
		c0.073-1.885,0.035-3.445,0.035-3.445c0.024-2.9,0.23-3.769,0.354-4.03c0.125,0.262,0.331,1.13,0.355,4.03
		c0,0-0.038,1.561,0.035,3.445l0,0v0.004c0.022,0.568,0.054,1.166,0.1,1.76c0.028,0.357,0.061,0.713,0.1,1.061
		c0.134,1.693,0.311,3.553,0.452,3.711c0.263,0.297,1.439,0.434,1.885,0c0.261-0.254,0.396-2.383,0.463-4.145
		c0.046-0.799,0.062-1.621,0.061-2.381c0-0.002,0-0.008,0-0.01l0,0c-0.003-1.715-0.089-3.096-0.089-3.096l-0.238-13.787
		c0,0,3.157,6.83,4.48,6.865C22.214,187.913,21.948,186.855,21.599,186.229z"/>
</g>
<g>
	<circle fill="#FFFFFF" cx="35.604" cy="172.696" r="3.534"/>
	<path fill="#FFFFFF" d="M43.932,186.229c-0.348-0.627-4.301-10.021-6.494-9.779c-0.979,0.109-1.408,0.184-1.609,0.229
		c-0.143,0.004-0.283,0.004-0.417,0c-0.2-0.045-0.628-0.119-1.609-0.229c-2.193-0.242-6.146,9.152-6.494,9.779
		s-0.614,1.684,0.708,1.648c1.323-0.035,4.48-6.865,4.48-6.865L32.26,194.8c0,0-0.086,1.381-0.089,3.096l0,0c0,0.002,0,0.008,0,0.01
		c-0.001,0.76,0.014,1.582,0.06,2.381c0.067,1.762,0.202,3.891,0.463,4.145c0.446,0.434,1.621,0.297,1.885,0
		c0.141-0.158,0.317-2.018,0.451-3.711c0.039-0.348,0.072-0.703,0.1-1.061c0.046-0.594,0.078-1.191,0.101-1.76v-0.004l0,0
		c0.073-1.885,0.035-3.445,0.035-3.445c0.024-2.9,0.23-3.768,0.354-4.029c0.125,0.262,0.331,1.129,0.355,4.029
		c0,0-0.038,1.561,0.035,3.445l0,0v0.004c0.022,0.568,0.054,1.166,0.1,1.76c0.028,0.357,0.061,0.713,0.1,1.061
		c0.134,1.693,0.311,3.553,0.452,3.711c0.263,0.297,1.439,0.434,1.885,0c0.261-0.254,0.396-2.383,0.463-4.145
		c0.046-0.799,0.062-1.621,0.061-2.381c0-0.002,0-0.008,0-0.01l0,0c-0.003-1.715-0.089-3.096-0.089-3.096l-0.238-13.787
		c0,0,3.157,6.83,4.48,6.865C44.547,187.913,44.281,186.856,43.932,186.229z"/>
</g>
<g>
	<circle fill="#FFFFFF" cx="58.271" cy="172.696" r="3.534"/>
	<path fill="#FFFFFF" d="M66.599,186.228c-0.348-0.627-4.301-10.021-6.494-9.778c-0.979,0.108-1.408,0.183-1.609,0.229
		c-0.143,0.003-0.283,0.003-0.417,0c-0.2-0.046-0.628-0.12-1.609-0.229c-2.193-0.243-6.146,9.151-6.494,9.778
		s-0.614,1.684,0.708,1.648c1.323-0.035,4.48-6.864,4.48-6.864L54.927,194.8c0,0-0.086,1.381-0.089,3.096l0,0
		c0,0.002,0,0.008,0,0.01c-0.001,0.76,0.014,1.582,0.06,2.381c0.067,1.762,0.202,3.891,0.463,4.145c0.446,0.434,1.621,0.297,1.885,0
		c0.141-0.158,0.317-2.018,0.451-3.711c0.039-0.348,0.072-0.703,0.1-1.061c0.046-0.594,0.078-1.191,0.101-1.76v-0.004l0,0
		c0.073-1.885,0.035-3.445,0.035-3.445c0.024-2.9,0.23-3.769,0.354-4.03c0.125,0.262,0.331,1.13,0.355,4.03
		c0,0-0.038,1.561,0.035,3.445l0,0v0.004c0.022,0.568,0.054,1.166,0.1,1.76c0.028,0.357,0.061,0.713,0.1,1.061
		c0.134,1.693,0.311,3.553,0.452,3.711c0.263,0.297,1.439,0.434,1.885,0c0.261-0.254,0.396-2.383,0.463-4.145
		c0.046-0.799,0.062-1.621,0.061-2.381c0-0.002,0-0.008,0-0.01l0,0c-0.003-1.715-0.089-3.096-0.089-3.096l-0.238-13.787
		c0,0,3.157,6.829,4.48,6.864C67.214,187.912,66.948,186.855,66.599,186.228z"/>
</g>
<g>
	<circle fill="#FFFFFF" cx="80.604" cy="172.696" r="3.534"/>
	<path fill="#FFFFFF" d="M88.932,186.228c-0.348-0.627-4.301-10.021-6.494-9.778c-0.979,0.108-1.408,0.183-1.609,0.229
		c-0.143,0.003-0.283,0.003-0.417,0c-0.2-0.046-0.628-0.12-1.609-0.229c-2.193-0.243-6.146,9.151-6.494,9.778
		s-0.614,1.684,0.708,1.648c1.323-0.035,4.48-6.864,4.48-6.864L77.26,194.8c0,0-0.086,1.381-0.089,3.096l0,0c0,0.002,0,0.008,0,0.01
		c-0.001,0.76,0.014,1.582,0.06,2.381c0.067,1.762,0.202,3.891,0.463,4.145c0.446,0.434,1.621,0.297,1.885,0
		c0.141-0.158,0.317-2.018,0.451-3.711c0.039-0.348,0.072-0.703,0.1-1.061c0.046-0.594,0.078-1.191,0.101-1.76v-0.004l0,0
		c0.073-1.885,0.035-3.445,0.035-3.445c0.024-2.9,0.23-3.769,0.354-4.03c0.125,0.262,0.331,1.13,0.355,4.03
		c0,0-0.038,1.561,0.035,3.445l0,0v0.004c0.022,0.568,0.054,1.166,0.1,1.76c0.028,0.357,0.061,0.713,0.1,1.061
		c0.134,1.693,0.311,3.553,0.452,3.711c0.263,0.297,1.439,0.434,1.885,0c0.261-0.254,0.396-2.383,0.463-4.145
		c0.046-0.799,0.062-1.621,0.061-2.381c0-0.002,0-0.008,0-0.01l0,0c-0.003-1.715-0.089-3.096-0.089-3.096l-0.238-13.787
		c0,0,3.157,6.829,4.48,6.864C89.547,187.912,89.281,186.855,88.932,186.228z"/>
</g>
<g>
	<circle fill="#FFFFFF" cx="103.271" cy="172.696" r="3.534"/>
	<path fill="#FFFFFF" d="M111.6,186.229c-0.348-0.627-4.301-10.021-6.494-9.779c-0.979,0.109-1.408,0.184-1.609,0.229
		c-0.143,0.004-0.283,0.004-0.417,0c-0.2-0.045-0.628-0.119-1.609-0.229c-2.193-0.242-6.146,9.152-6.494,9.779
		s-0.614,1.684,0.708,1.648c1.323-0.035,4.48-6.865,4.48-6.865L99.928,194.8c0,0-0.086,1.381-0.089,3.096l0,0
		c0,0.002,0,0.008,0,0.01c-0.001,0.76,0.014,1.582,0.06,2.381c0.067,1.762,0.202,3.891,0.463,4.145c0.446,0.434,1.621,0.297,1.885,0
		c0.141-0.158,0.317-2.018,0.451-3.711c0.039-0.348,0.072-0.703,0.1-1.061c0.046-0.594,0.078-1.191,0.101-1.76v-0.004l0,0
		c0.073-1.885,0.035-3.445,0.035-3.445c0.024-2.9,0.23-3.768,0.354-4.029c0.125,0.262,0.331,1.129,0.355,4.029
		c0,0-0.038,1.561,0.035,3.445l0,0v0.004c0.022,0.568,0.054,1.166,0.1,1.76c0.028,0.357,0.061,0.713,0.1,1.061
		c0.134,1.693,0.311,3.553,0.452,3.711c0.263,0.297,1.439,0.434,1.885,0c0.261-0.254,0.396-2.383,0.463-4.145
		c0.046-0.799,0.062-1.621,0.061-2.381c0-0.002,0-0.008,0-0.01l0,0c-0.003-1.715-0.089-3.096-0.089-3.096l-0.238-13.787
		c0,0,3.157,6.83,4.48,6.865C112.214,187.913,111.948,186.856,111.6,186.229z"/>
</g>
<g>
	<circle fill="#FFFFFF" cx="125.605" cy="172.696" r="3.534"/>
	<path fill="#FFFFFF" d="M133.933,186.229c-0.348-0.627-4.301-10.021-6.494-9.779c-0.979,0.109-1.408,0.184-1.609,0.229
		c-0.143,0.004-0.282,0.004-0.416,0c-0.2-0.045-0.628-0.119-1.609-0.229c-2.193-0.242-6.146,9.152-6.494,9.779
		s-0.614,1.684,0.708,1.648c1.323-0.035,4.48-6.865,4.48-6.865l-0.238,13.787c0,0-0.086,1.381-0.089,3.096l0,0
		c0,0.002,0,0.008,0,0.01c-0.001,0.76,0.014,1.582,0.06,2.381c0.067,1.762,0.202,3.891,0.463,4.145c0.446,0.434,1.621,0.297,1.885,0
		c0.141-0.158,0.317-2.018,0.451-3.711c0.039-0.348,0.072-0.703,0.1-1.061c0.046-0.594,0.078-1.191,0.101-1.76v-0.004l0,0
		c0.072-1.885,0.035-3.445,0.035-3.445c0.023-2.9,0.23-3.768,0.354-4.029c0.124,0.262,0.331,1.129,0.354,4.029
		c0,0-0.037,1.561,0.035,3.445l0,0v0.004c0.022,0.568,0.055,1.166,0.101,1.76c0.028,0.357,0.062,0.713,0.101,1.061
		c0.133,1.693,0.311,3.553,0.451,3.711c0.264,0.297,1.439,0.434,1.885,0c0.262-0.254,0.396-2.383,0.463-4.145
		c0.047-0.799,0.061-1.621,0.061-2.381c0-0.002,0-0.008,0-0.01l0,0c-0.004-1.715-0.09-3.096-0.09-3.096l-0.238-13.787
		c0,0,3.158,6.83,4.48,6.865S134.281,186.856,133.933,186.229z"/>
</g>
<g>
	<circle fill="#FFFFFF" cx="148.271" cy="172.696" r="3.534"/>
	<path fill="#FFFFFF" d="M156.599,186.229c-0.348-0.627-4.301-10.021-6.494-9.779c-0.979,0.109-1.408,0.184-1.607,0.229
		c-0.145,0.004-0.283,0.004-0.418,0c-0.199-0.045-0.627-0.119-1.607-0.229c-2.193-0.242-6.146,9.152-6.494,9.779
		c-0.35,0.627-0.615,1.684,0.707,1.648c1.324-0.035,4.48-6.865,4.48-6.865l-0.238,13.787c0,0-0.086,1.381-0.088,3.096l0,0
		c0,0.002,0,0.008,0,0.01c-0.002,0.76,0.014,1.582,0.059,2.381c0.068,1.762,0.203,3.891,0.465,4.145
		c0.445,0.434,1.621,0.297,1.885,0c0.141-0.158,0.316-2.018,0.451-3.711c0.039-0.348,0.072-0.703,0.1-1.061
		c0.047-0.594,0.078-1.191,0.1-1.76v-0.004l0,0c0.074-1.885,0.035-3.445,0.035-3.445c0.025-2.9,0.23-3.768,0.355-4.029
		c0.125,0.262,0.33,1.129,0.355,4.029c0,0-0.039,1.561,0.035,3.445l0,0v0.004c0.021,0.568,0.053,1.166,0.1,1.76
		c0.027,0.357,0.061,0.713,0.1,1.061c0.135,1.693,0.311,3.553,0.451,3.711c0.264,0.297,1.439,0.434,1.885,0
		c0.262-0.254,0.396-2.383,0.463-4.145c0.047-0.799,0.063-1.621,0.061-2.381c0-0.002,0-0.008,0-0.01l0,0
		c-0.002-1.715-0.088-3.096-0.088-3.096l-0.238-13.787c0,0,3.156,6.83,4.479,6.865C157.214,187.913,156.948,186.856,156.599,186.229
		z"/>
</g>
<g>
	<circle fill="#FFFFFF" cx="170.605" cy="172.696" r="3.534"/>
	<path fill="#FFFFFF" d="M178.933,186.229c-0.348-0.627-4.301-10.021-6.494-9.779c-0.98,0.109-1.408,0.184-1.609,0.229
		c-0.143,0.004-0.283,0.004-0.416,0c-0.201-0.045-0.629-0.119-1.609-0.229c-2.193-0.242-6.146,9.152-6.494,9.779
		s-0.613,1.684,0.709,1.648s4.48-6.865,4.48-6.865l-0.238,13.787c0,0-0.086,1.381-0.09,3.096l0,0c0,0.002,0,0.008,0,0.01
		c-0.002,0.76,0.014,1.582,0.061,2.381c0.066,1.762,0.201,3.891,0.463,4.145c0.445,0.434,1.621,0.297,1.885,0
		c0.141-0.158,0.318-2.018,0.451-3.711c0.039-0.348,0.072-0.703,0.1-1.061c0.047-0.594,0.078-1.191,0.102-1.76v-0.004l0,0
		c0.072-1.885,0.035-3.445,0.035-3.445c0.023-2.9,0.23-3.768,0.354-4.029c0.125,0.262,0.332,1.129,0.355,4.029
		c0,0-0.037,1.561,0.035,3.445l0,0v0.004c0.021,0.568,0.055,1.166,0.1,1.76c0.029,0.357,0.063,0.713,0.102,1.061
		c0.133,1.693,0.311,3.553,0.451,3.711c0.264,0.297,1.439,0.434,1.885,0c0.262-0.254,0.396-2.383,0.463-4.145
		c0.047-0.799,0.061-1.621,0.061-2.381c0-0.002,0-0.008,0-0.01l0,0c-0.004-1.715-0.09-3.096-0.09-3.096l-0.238-13.787
		c0,0,3.158,6.83,4.48,6.865S179.281,186.856,178.933,186.229z"/>
</g>
<g>
	<circle fill="#FFFFFF" cx="193.271" cy="172.696" r="3.534"/>
	<path fill="#FFFFFF" d="M201.601,186.229c-0.35-0.627-4.303-10.021-6.494-9.779c-0.98,0.109-1.41,0.184-1.609,0.229
		c-0.145,0.004-0.283,0.004-0.418,0c-0.199-0.045-0.627-0.119-1.607-0.229c-2.193-0.242-6.146,9.152-6.494,9.779
		c-0.35,0.627-0.615,1.684,0.707,1.648c1.324-0.035,4.48-6.865,4.48-6.865l-0.238,13.787c0,0-0.086,1.381-0.088,3.096l0,0
		c0,0.002,0,0.008,0,0.01c-0.002,0.76,0.014,1.582,0.059,2.381c0.068,1.762,0.203,3.891,0.465,4.145
		c0.445,0.434,1.621,0.297,1.885,0c0.141-0.158,0.316-2.018,0.451-3.711c0.039-0.348,0.072-0.703,0.1-1.061
		c0.047-0.594,0.078-1.191,0.1-1.76v-0.004l0,0c0.074-1.885,0.035-3.445,0.035-3.445c0.025-2.9,0.23-3.768,0.355-4.029
		c0.125,0.262,0.33,1.129,0.355,4.029c0,0-0.039,1.561,0.035,3.445l0,0v0.004c0.021,0.568,0.053,1.166,0.1,1.76
		c0.027,0.357,0.061,0.713,0.1,1.061c0.135,1.693,0.311,3.553,0.453,3.711c0.262,0.297,1.438,0.434,1.885,0
		c0.26-0.254,0.395-2.383,0.463-4.145c0.045-0.799,0.061-1.621,0.061-2.381c0-0.002,0-0.008,0-0.01l0,0
		c-0.004-1.715-0.09-3.096-0.09-3.096l-0.238-13.787c0,0,3.156,6.83,4.48,6.865C202.214,187.913,201.948,186.856,201.601,186.229z"
		/>
</g>
<g>
	<circle fill="#FFFFFF" cx="238.271" cy="172.696" r="3.534"/>
	<path fill="#FFFFFF" d="M246.601,186.229c-0.35-0.627-4.303-10.021-6.494-9.779c-0.98,0.109-1.408,0.184-1.609,0.229
		c-0.143,0.004-0.283,0.004-0.416,0c-0.201-0.045-0.629-0.119-1.609-0.229c-2.193-0.242-6.146,9.152-6.494,9.779
		s-0.615,1.684,0.709,1.648c1.322-0.035,4.479-6.865,4.479-6.865l-0.236,13.787c0,0-0.088,1.381-0.09,3.096l0,0
		c0,0.002,0,0.008,0,0.01c-0.002,0.76,0.014,1.582,0.061,2.381c0.066,1.762,0.201,3.891,0.463,4.145
		c0.445,0.434,1.621,0.297,1.885,0c0.141-0.158,0.316-2.018,0.451-3.711c0.039-0.348,0.072-0.703,0.1-1.061
		c0.047-0.594,0.078-1.191,0.102-1.76v-0.004l0,0c0.072-1.885,0.035-3.445,0.035-3.445c0.023-2.9,0.23-3.768,0.354-4.029
		c0.125,0.262,0.332,1.129,0.355,4.029c0,0-0.039,1.561,0.035,3.445l0,0v0.004c0.021,0.568,0.055,1.166,0.1,1.76
		c0.027,0.357,0.061,0.713,0.1,1.061c0.135,1.693,0.311,3.553,0.453,3.711c0.262,0.297,1.438,0.434,1.885,0
		c0.26-0.254,0.395-2.383,0.463-4.145c0.045-0.799,0.061-1.621,0.061-2.381c0-0.002,0-0.008,0-0.01l0,0
		c-0.004-1.715-0.09-3.096-0.09-3.096l-0.238-13.787c0,0,3.156,6.83,4.48,6.865C247.214,187.913,246.948,186.856,246.601,186.229z"
		/>
</g>
<g>
	<circle fill="#FFFFFF" cx="13.104" cy="213.696" r="3.533"/>
	<path fill="#FFFFFF" d="M21.432,227.229c-0.348-0.627-4.301-10.021-6.494-9.779c-0.979,0.109-1.408,0.184-1.609,0.229
		c-0.143,0.004-0.283,0.004-0.417,0c-0.2-0.045-0.628-0.119-1.609-0.229c-2.193-0.242-6.146,9.152-6.494,9.779
		s-0.614,1.684,0.708,1.648c1.323-0.035,4.48-6.865,4.48-6.865L9.76,235.8c0,0-0.086,1.381-0.089,3.096l0,0c0,0.002,0,0.008,0,0.01
		c-0.001,0.76,0.014,1.582,0.06,2.381c0.067,1.762,0.202,3.891,0.463,4.145c0.446,0.434,1.621,0.297,1.885,0
		c0.141-0.158,0.317-2.018,0.451-3.711c0.039-0.348,0.072-0.703,0.1-1.061c0.046-0.594,0.078-1.191,0.101-1.76v-0.004l0,0
		c0.073-1.885,0.035-3.445,0.035-3.445c0.024-2.9,0.23-3.768,0.354-4.029c0.125,0.262,0.331,1.129,0.355,4.029
		c0,0-0.038,1.561,0.035,3.445l0,0v0.004c0.022,0.568,0.054,1.166,0.1,1.76c0.028,0.357,0.061,0.713,0.1,1.061
		c0.134,1.693,0.311,3.553,0.452,3.711c0.263,0.297,1.439,0.434,1.885,0c0.261-0.254,0.396-2.383,0.463-4.145
		c0.046-0.799,0.062-1.621,0.061-2.381c0-0.002,0-0.008,0-0.01l0,0c-0.003-1.715-0.089-3.096-0.089-3.096l-0.238-13.787
		c0,0,3.157,6.83,4.48,6.865C22.047,228.913,21.781,227.856,21.432,227.229z"/>
</g>
<g>
	<circle fill="#FFFFFF" cx="35.437" cy="213.696" r="3.533"/>
	<path fill="#FFFFFF" d="M43.765,227.229c-0.348-0.627-4.301-10.021-6.494-9.779c-0.979,0.109-1.408,0.184-1.609,0.229
		c-0.143,0.004-0.283,0.004-0.417,0c-0.2-0.045-0.628-0.119-1.609-0.229c-2.193-0.242-6.146,9.152-6.494,9.779
		s-0.614,1.684,0.708,1.648c1.323-0.035,4.48-6.865,4.48-6.865L32.094,235.8c0,0-0.086,1.381-0.089,3.096l0,0
		c0,0.002,0,0.008,0,0.01c-0.001,0.76,0.014,1.582,0.06,2.381c0.067,1.762,0.202,3.891,0.463,4.145c0.446,0.434,1.621,0.297,1.885,0
		c0.141-0.158,0.317-2.018,0.451-3.711c0.039-0.348,0.072-0.703,0.1-1.061c0.046-0.594,0.078-1.191,0.101-1.76v-0.004l0,0
		c0.073-1.885,0.035-3.445,0.035-3.445c0.024-2.9,0.23-3.768,0.354-4.029c0.125,0.262,0.331,1.129,0.355,4.029
		c0,0-0.038,1.561,0.035,3.445l0,0v0.004c0.022,0.568,0.054,1.166,0.1,1.76c0.028,0.357,0.061,0.713,0.1,1.061
		c0.134,1.693,0.311,3.553,0.452,3.711c0.263,0.297,1.439,0.434,1.885,0c0.261-0.254,0.396-2.383,0.463-4.145
		c0.046-0.799,0.062-1.621,0.061-2.381c0-0.002,0-0.008,0-0.01l0,0c-0.003-1.715-0.089-3.096-0.089-3.096l-0.238-13.787
		c0,0,3.157,6.83,4.48,6.865C44.38,228.913,44.114,227.856,43.765,227.229z"/>
</g>
<g>
	<circle fill="#FFFFFF" cx="58.104" cy="213.695" r="3.534"/>
	<path fill="#FFFFFF" d="M66.432,227.229c-0.348-0.627-4.301-10.021-6.494-9.779c-0.979,0.109-1.408,0.184-1.609,0.229
		c-0.143,0.004-0.283,0.004-0.417,0c-0.2-0.045-0.628-0.119-1.609-0.229c-2.193-0.242-6.146,9.152-6.494,9.779
		s-0.614,1.684,0.708,1.648c1.323-0.035,4.48-6.865,4.48-6.865L54.76,235.8c0,0-0.086,1.381-0.089,3.096l0,0c0,0.002,0,0.008,0,0.01
		c-0.001,0.76,0.014,1.582,0.06,2.381c0.067,1.762,0.202,3.891,0.463,4.145c0.446,0.434,1.621,0.297,1.885,0
		c0.141-0.158,0.317-2.018,0.451-3.711c0.039-0.348,0.072-0.703,0.1-1.061c0.046-0.594,0.078-1.191,0.101-1.76v-0.004l0,0
		c0.073-1.885,0.035-3.445,0.035-3.445c0.024-2.9,0.23-3.768,0.354-4.029c0.125,0.262,0.331,1.129,0.355,4.029
		c0,0-0.038,1.561,0.035,3.445l0,0v0.004c0.022,0.568,0.054,1.166,0.1,1.76c0.028,0.357,0.061,0.713,0.1,1.061
		c0.134,1.693,0.311,3.553,0.452,3.711c0.263,0.297,1.439,0.434,1.885,0c0.261-0.254,0.396-2.383,0.463-4.145
		c0.046-0.799,0.062-1.621,0.061-2.381c0-0.002,0-0.008,0-0.01l0,0c-0.003-1.715-0.089-3.096-0.089-3.096l-0.238-13.787
		c0,0,3.157,6.83,4.48,6.865C67.047,228.913,66.781,227.856,66.432,227.229z"/>
</g>
<g>
	<circle fill="#FFFFFF" cx="80.437" cy="213.695" r="3.534"/>
	<path fill="#FFFFFF" d="M88.765,227.229c-0.348-0.627-4.301-10.021-6.494-9.779c-0.979,0.109-1.408,0.184-1.609,0.229
		c-0.143,0.004-0.283,0.004-0.417,0c-0.2-0.045-0.628-0.119-1.609-0.229c-2.193-0.242-6.146,9.152-6.494,9.779
		s-0.614,1.684,0.708,1.648c1.323-0.035,4.48-6.865,4.48-6.865L77.094,235.8c0,0-0.086,1.381-0.089,3.096l0,0
		c0,0.002,0,0.008,0,0.01c-0.001,0.76,0.014,1.582,0.06,2.381c0.067,1.762,0.202,3.891,0.463,4.145c0.446,0.434,1.621,0.297,1.885,0
		c0.141-0.158,0.317-2.018,0.451-3.711c0.039-0.348,0.072-0.703,0.1-1.061c0.046-0.594,0.078-1.191,0.101-1.76v-0.004l0,0
		c0.073-1.885,0.035-3.445,0.035-3.445c0.024-2.9,0.23-3.768,0.354-4.029c0.125,0.262,0.331,1.129,0.355,4.029
		c0,0-0.038,1.561,0.035,3.445l0,0v0.004c0.022,0.568,0.054,1.166,0.1,1.76c0.028,0.357,0.061,0.713,0.1,1.061
		c0.134,1.693,0.311,3.553,0.452,3.711c0.263,0.297,1.439,0.434,1.885,0c0.261-0.254,0.396-2.383,0.463-4.145
		c0.046-0.799,0.062-1.621,0.061-2.381c0-0.002,0-0.008,0-0.01l0,0c-0.003-1.715-0.089-3.096-0.089-3.096l-0.238-13.787
		c0,0,3.157,6.83,4.48,6.865C89.38,228.913,89.114,227.856,88.765,227.229z"/>
</g>
<g>
	<circle fill="#FFFFFF" cx="103.104" cy="213.696" r="3.533"/>
	<path fill="#FFFFFF" d="M111.433,227.229c-0.348-0.627-4.301-10.021-6.494-9.779c-0.979,0.109-1.408,0.184-1.609,0.229
		c-0.143,0.004-0.283,0.004-0.417,0c-0.2-0.045-0.628-0.119-1.609-0.229c-2.193-0.242-6.146,9.152-6.494,9.779
		s-0.614,1.684,0.708,1.648c1.323-0.035,4.48-6.865,4.48-6.865L99.761,235.8c0,0-0.086,1.381-0.089,3.096l0,0
		c0,0.002,0,0.008,0,0.01c-0.001,0.76,0.014,1.582,0.06,2.381c0.067,1.762,0.202,3.891,0.463,4.145c0.446,0.434,1.621,0.297,1.885,0
		c0.141-0.158,0.317-2.018,0.451-3.711c0.039-0.348,0.072-0.703,0.1-1.061c0.046-0.594,0.078-1.191,0.101-1.76v-0.004l0,0
		c0.073-1.885,0.035-3.445,0.035-3.445c0.024-2.9,0.23-3.768,0.354-4.029c0.125,0.262,0.331,1.129,0.355,4.029
		c0,0-0.038,1.561,0.035,3.445l0,0v0.004c0.022,0.568,0.054,1.166,0.1,1.76c0.028,0.357,0.061,0.713,0.1,1.061
		c0.134,1.693,0.311,3.553,0.452,3.711c0.263,0.297,1.439,0.434,1.885,0c0.261-0.254,0.396-2.383,0.463-4.145
		c0.046-0.799,0.062-1.621,0.061-2.381c0-0.002,0-0.008,0-0.01l0,0c-0.003-1.715-0.089-3.096-0.089-3.096l-0.238-13.787
		c0,0,3.157,6.83,4.48,6.865C112.047,228.913,111.781,227.856,111.433,227.229z"/>
</g>
<g>
	<circle fill="#FFFFFF" cx="125.437" cy="213.696" r="3.533"/>
	<path fill="#FFFFFF" d="M133.767,227.229c-0.35-0.627-4.303-10.021-6.494-9.779c-0.98,0.109-1.409,0.184-1.609,0.229
		c-0.144,0.004-0.283,0.004-0.417,0c-0.2-0.045-0.628-0.119-1.609-0.229c-2.193-0.242-6.146,9.152-6.494,9.779
		s-0.614,1.684,0.708,1.648c1.323-0.035,4.48-6.865,4.48-6.865l-0.238,13.787c0,0-0.086,1.381-0.089,3.096l0,0
		c0,0.002,0,0.008,0,0.01c-0.001,0.76,0.014,1.582,0.06,2.381c0.067,1.762,0.202,3.891,0.463,4.145c0.446,0.434,1.621,0.297,1.885,0
		c0.141-0.158,0.317-2.018,0.451-3.711c0.039-0.348,0.072-0.703,0.1-1.061c0.046-0.594,0.078-1.191,0.101-1.76v-0.004l0,0
		c0.073-1.885,0.035-3.445,0.035-3.445c0.024-2.9,0.23-3.768,0.354-4.029c0.125,0.262,0.331,1.129,0.355,4.029
		c0,0-0.039,1.561,0.035,3.445l0,0v0.004c0.021,0.568,0.054,1.166,0.1,1.76c0.027,0.357,0.061,0.713,0.1,1.061
		c0.135,1.693,0.311,3.553,0.453,3.711c0.262,0.297,1.438,0.434,1.885,0c0.26-0.254,0.395-2.383,0.463-4.145
		c0.045-0.799,0.061-1.621,0.061-2.381c0-0.002,0-0.008,0-0.01l0,0c-0.004-1.715-0.09-3.096-0.09-3.096l-0.238-13.787
		c0,0,3.156,6.83,4.48,6.865C134.38,228.913,134.115,227.856,133.767,227.229z"/>
</g>
<g>
	<circle fill="#FFFFFF" cx="148.105" cy="213.695" r="3.534"/>
	<path fill="#FFFFFF" d="M156.433,227.229c-0.348-0.627-4.301-10.021-6.494-9.779c-0.979,0.109-1.408,0.184-1.609,0.229
		c-0.143,0.004-0.281,0.004-0.416,0c-0.199-0.045-0.629-0.119-1.609-0.229c-2.193-0.242-6.145,9.152-6.494,9.779
		c-0.348,0.627-0.613,1.684,0.709,1.648c1.324-0.035,4.48-6.865,4.48-6.865l-0.238,13.787c0,0-0.086,1.381-0.09,3.096l0,0
		c0,0.002,0,0.008,0,0.01c0,0.76,0.014,1.582,0.061,2.381c0.066,1.762,0.203,3.891,0.463,4.145c0.447,0.434,1.621,0.297,1.885,0
		c0.143-0.158,0.318-2.018,0.451-3.711c0.039-0.348,0.072-0.703,0.102-1.061c0.045-0.594,0.078-1.191,0.1-1.76v-0.004l0,0
		c0.072-1.885,0.035-3.445,0.035-3.445c0.023-2.9,0.23-3.768,0.355-4.029c0.123,0.262,0.33,1.129,0.354,4.029
		c0,0-0.037,1.561,0.035,3.445l0,0v0.004c0.023,0.568,0.055,1.166,0.102,1.76c0.027,0.357,0.061,0.713,0.1,1.061
		c0.133,1.693,0.311,3.553,0.451,3.711c0.264,0.297,1.439,0.434,1.885,0c0.262-0.254,0.396-2.383,0.463-4.145
		c0.047-0.799,0.063-1.621,0.061-2.381c0-0.002,0-0.008,0-0.01l0,0c-0.002-1.715-0.09-3.096-0.09-3.096l-0.238-13.787
		c0,0,3.158,6.83,4.48,6.865C157.048,228.913,156.781,227.856,156.433,227.229z"/>
</g>
<g>
	<circle fill="#FFFFFF" cx="170.437" cy="213.695" r="3.534"/>
	<path fill="#FFFFFF" d="M178.767,227.229c-0.35-0.627-4.303-10.021-6.494-9.779c-0.98,0.109-1.408,0.184-1.609,0.229
		c-0.143,0.004-0.283,0.004-0.416,0c-0.201-0.045-0.629-0.119-1.609-0.229c-2.193-0.242-6.146,9.152-6.494,9.779
		s-0.615,1.684,0.709,1.648c1.322-0.035,4.479-6.865,4.479-6.865l-0.236,13.787c0,0-0.088,1.381-0.09,3.096l0,0
		c0,0.002,0,0.008,0,0.01c-0.002,0.76,0.014,1.582,0.061,2.381c0.066,1.762,0.201,3.891,0.463,4.145
		c0.445,0.434,1.621,0.297,1.885,0c0.141-0.158,0.316-2.018,0.451-3.711c0.039-0.348,0.072-0.703,0.1-1.061
		c0.047-0.594,0.078-1.191,0.102-1.76v-0.004l0,0c0.072-1.885,0.035-3.445,0.035-3.445c0.023-2.9,0.23-3.768,0.354-4.029
		c0.125,0.262,0.332,1.129,0.355,4.029c0,0-0.039,1.561,0.035,3.445l0,0v0.004c0.021,0.568,0.055,1.166,0.1,1.76
		c0.027,0.357,0.061,0.713,0.1,1.061c0.135,1.693,0.311,3.553,0.453,3.711c0.262,0.297,1.438,0.434,1.885,0
		c0.26-0.254,0.395-2.383,0.463-4.145c0.045-0.799,0.061-1.621,0.061-2.381c0-0.002,0-0.008,0-0.01l0,0
		c-0.004-1.715-0.09-3.096-0.09-3.096l-0.238-13.787c0,0,3.156,6.83,4.48,6.865C179.38,228.913,179.115,227.856,178.767,227.229z"/>
</g>
<g>
	<circle fill="#FFFFFF" cx="193.105" cy="213.696" r="3.533"/>
	<path fill="#FFFFFF" d="M201.433,227.229c-0.348-0.627-4.301-10.021-6.494-9.779c-0.979,0.109-1.408,0.184-1.609,0.229
		c-0.143,0.004-0.281,0.004-0.416,0c-0.199-0.045-0.629-0.119-1.609-0.229c-2.193-0.242-6.145,9.152-6.494,9.779
		c-0.348,0.627-0.613,1.684,0.709,1.648c1.324-0.035,4.48-6.865,4.48-6.865l-0.238,13.787c0,0-0.086,1.381-0.09,3.096l0,0
		c0,0.002,0,0.008,0,0.01c0,0.76,0.014,1.582,0.061,2.381c0.066,1.762,0.203,3.891,0.463,4.145c0.447,0.434,1.621,0.297,1.885,0
		c0.143-0.158,0.318-2.018,0.451-3.711c0.039-0.348,0.072-0.703,0.102-1.061c0.045-0.594,0.078-1.191,0.1-1.76v-0.004l0,0
		c0.072-1.885,0.035-3.445,0.035-3.445c0.023-2.9,0.23-3.768,0.355-4.029c0.123,0.262,0.33,1.129,0.354,4.029
		c0,0-0.037,1.561,0.035,3.445l0,0v0.004c0.023,0.568,0.055,1.166,0.102,1.76c0.027,0.357,0.061,0.713,0.1,1.061
		c0.133,1.693,0.311,3.553,0.451,3.711c0.264,0.297,1.439,0.434,1.885,0c0.262-0.254,0.396-2.383,0.463-4.145
		c0.047-0.799,0.061-1.621,0.061-2.381c0-0.002,0-0.008,0-0.01l0,0c-0.004-1.715-0.09-3.096-0.09-3.096l-0.238-13.787
		c0,0,3.158,6.83,4.48,6.865S201.781,227.856,201.433,227.229z"/>
</g>
<g>
	<circle fill="#FFFFFF" cx="215.771" cy="213.695" r="3.534"/>
	<path fill="#FFFFFF" d="M224.099,227.229c-0.348-0.627-4.301-10.021-6.494-9.779c-0.979,0.109-1.408,0.184-1.607,0.229
		c-0.145,0.004-0.283,0.004-0.418,0c-0.199-0.045-0.627-0.119-1.607-0.229c-2.193-0.242-6.146,9.152-6.494,9.779
		c-0.35,0.627-0.615,1.684,0.707,1.648c1.324-0.035,4.48-6.865,4.48-6.865l-0.238,13.787c0,0-0.086,1.381-0.088,3.096l0,0
		c0,0.002,0,0.008,0,0.01c-0.002,0.76,0.014,1.582,0.059,2.381c0.068,1.762,0.203,3.891,0.465,4.145
		c0.445,0.434,1.621,0.297,1.885,0c0.141-0.158,0.316-2.018,0.451-3.711c0.039-0.348,0.072-0.703,0.1-1.061
		c0.047-0.594,0.078-1.191,0.1-1.76v-0.004l0,0c0.074-1.885,0.035-3.445,0.035-3.445c0.025-2.9,0.23-3.768,0.355-4.029
		c0.125,0.262,0.33,1.129,0.355,4.029c0,0-0.039,1.561,0.035,3.445l0,0v0.004c0.021,0.568,0.053,1.166,0.1,1.76
		c0.027,0.357,0.061,0.713,0.1,1.061c0.135,1.693,0.311,3.553,0.451,3.711c0.264,0.297,1.439,0.434,1.885,0
		c0.262-0.254,0.396-2.383,0.463-4.145c0.047-0.799,0.063-1.621,0.061-2.381c0-0.002,0-0.008,0-0.01l0,0
		c-0.002-1.715-0.088-3.096-0.088-3.096l-0.238-13.787c0,0,3.156,6.83,4.479,6.865C224.714,228.913,224.448,227.856,224.099,227.229
		z"/>
</g>
<g>
	<circle fill="#FFFFFF" cx="238.105" cy="213.695" r="3.534"/>
	<path fill="#FFFFFF" d="M246.433,227.229c-0.348-0.627-4.301-10.021-6.494-9.779c-0.98,0.109-1.408,0.184-1.609,0.229
		c-0.143,0.004-0.283,0.004-0.416,0c-0.201-0.045-0.629-0.119-1.609-0.229c-2.193-0.242-6.146,9.152-6.494,9.779
		s-0.613,1.684,0.709,1.648s4.48-6.865,4.48-6.865l-0.238,13.787c0,0-0.086,1.381-0.09,3.096l0,0c0,0.002,0,0.008,0,0.01
		c-0.002,0.76,0.014,1.582,0.061,2.381c0.066,1.762,0.201,3.891,0.463,4.145c0.445,0.434,1.621,0.297,1.885,0
		c0.141-0.158,0.318-2.018,0.451-3.711c0.039-0.348,0.072-0.703,0.1-1.061c0.047-0.594,0.078-1.191,0.102-1.76v-0.004l0,0
		c0.072-1.885,0.035-3.445,0.035-3.445c0.023-2.9,0.23-3.768,0.354-4.029c0.125,0.262,0.332,1.129,0.355,4.029
		c0,0-0.037,1.561,0.035,3.445l0,0v0.004c0.021,0.568,0.055,1.166,0.1,1.76c0.029,0.357,0.063,0.713,0.102,1.061
		c0.133,1.693,0.311,3.553,0.451,3.711c0.264,0.297,1.439,0.434,1.885,0c0.262-0.254,0.396-2.383,0.463-4.145
		c0.047-0.799,0.061-1.621,0.061-2.381c0-0.002,0-0.008,0-0.01l0,0c-0.004-1.715-0.09-3.096-0.09-3.096l-0.238-13.787
		c0,0,3.158,6.83,4.48,6.865S246.781,227.856,246.433,227.229z"/>
</g>
</svg>
